<svg xmlns="http://www.w3.org/2000/svg" viewBox="0 0 591 100" width="591" height="100">
  <defs>
    <linearGradient id="ig-h-grad" x1="0.5" y1="0" x2="0.5" y2="1">
      <stop offset="0%" stop-color="#E91E8B"/>
      <stop offset="50%" stop-color="#E8606A"/>
      <stop offset="100%" stop-color="#F5A623"/>
    </linearGradient>
  </defs>
  <svg x="29.55" y="5" width="67.9" height="90" viewBox="75.68 66.88 716.32 949.52" preserveAspectRatio="xMidYMid meet">
    <path fill="url(#ig-h-grad)" fill-rule="evenodd" d="M140 69.4c-3 1.4-6.6 2.5-8 2.6-2.7 0-11 4.1-20 9.8a106 106 0 0 0-24.5 25L84 113c-5.5 8.7-8 22.3-8 44.1 0 22.3 1.2 31.5 5.1 38.8 6 11 7.9 13.7 14 19.1a668 668 0 0 1 21.2 19.1c5 4.6 18.4 17.5 29.7 28.6a947 947 0 0 0 32.5 30.8l55 52.6a948 948 0 0 0 36 33.4l16 15c7.7 7.2 21.4 20.3 30.5 29.2 33 32.2 69.1 64.7 76.2 68.4a90 90 0 0 0 85.6.1q5.3-2.6 22-19a2414 2414 0 0 1 89.7-85.6c1.7-1.8 47.2-45.6 54.2-52.3l16.5-15.5 27.8-26.3 33-31.5 22.5-21.5 11.6-10.5c24.2-21.4 28-26.6 33.5-46.8 3.8-13.8 4.7-38.6 1.6-48.9l-2.6-9.7c-3.9-16.7-24.5-40.5-42.6-48.9-16.6-7.7-19.3-8.2-45.5-8.2-22.5 0-24.4.1-29.8 2.3a34 34 0 0 1-8 2.2c-3.7 0-15.9 6.5-20.9 11.2l-9.5 8.8-14.8 14-18.5 17.4a6566 6566 0 0 0-72.1 69.6c-41 40.4-77.1 74.5-81.8 77a31 31 0 0 1-16.1.2c-1.4-.5-16.3-14-33-29.8l-35-32.9c-8.3-7.6-21.4-20-38-36a1818 1818 0 0 0-49-46l-10.5-10-12.6-11.9-13.4-12.5C225.1 80 212.8 72 207.8 72c-.8 0-4.1-1-7.4-2.1-5.3-2-8.4-2.2-30.4-2.6-24.3-.3-24.5-.3-30 2.1m284.3 507.7a50 50 0 0 0-20.1 5.4c-9.8 3.2-29.4 20.3-75.7 66.1-12.1 12-30.3 29.6-40.5 39.3L257.5 717 220 753l-52.5 50.5L136 834c-50.5 48.2-50 47.6-54.6 63.6-4.2 14.8-4.8 52.3-1 62.4l3.2 8.9c.4 1.3 1.8 3.9 3.1 5.8s2.4 4 2.4 4.4c0 5 21 24.4 32 29.5 16 7.4 18.9 7.9 49 7.9h27.5l9-3c13-4.1 16.6-7 40-30.2 11.6-11.4 25.8-25.1 31.5-30.4a1798 1798 0 0 0 49.6-46.3c5.6-5.6 16.4-16 24-23.1l22.8-21.5c35-33.4 48-45.6 50-47 3-2.1 18.3-2 21.5.2 1.3.9 9.4 8.5 18 17s20.8 20 27.1 26c13 12 27.3 25.8 53.5 51.7 9.9 9.8 21.8 21.1 26.5 25.2s22.9 21.6 40.5 39c32.6 32.1 38.4 36.8 46.7 38.3 2 .4 5.9 1.6 8.5 2.8 4.6 2 6.1 2.2 30.8 2l26-.1 9.3-3a85 85 0 0 0 50.1-44c8.4-16.6 8.5-58.6.3-81-3-8-6.9-12.3-37.4-41.6-37.5-36-60.8-58.4-79.8-77-11.8-11.7-24.9-24.3-29-28s-18-17.3-31-30-27.5-27-32.5-31.6c-21.9-20.5-30.1-28.4-47.5-45.4a758 758 0 0 0-51.9-47.7 67 67 0 0 0-26.1-10.3 94 94 0 0 0-23.7-.4"/>
  </svg>
  <text
    x="121.45"
    y="65.84"
    font-family="'Plus Jakarta Sans', system-ui, sans-serif"
    font-weight="700"
    font-size="44"
    letter-spacing="0.06em"
    fill="#F5A623"
  >INTEGRAS<tspan fill="#E91E8B">.</tspan>DIGITAL</text>
</svg>
