<svg xmlns="http://www.w3.org/2000/svg" viewBox="124.2 55.6 542.7 677.4" version="1.1">
  <defs>
    <linearGradient id="integras-brand" x1="0.5" y1="0" x2="0.5" y2="1">
      <stop offset="0%" stop-color="#E91E8B"/>
      <stop offset="50%" stop-color="#E8606A"/>
      <stop offset="100%" stop-color="#F5A623"/>
    </linearGradient>
  </defs>
  <path fill="url(#integras-brand)" fill-rule="evenodd" d="M182 70.4a67.3 67.3 0 0 0-30.2 17.8c-12 11.8-16.8 25.3-16.8 46.2 0 22.8 3.6 32.7 15.7 43.5l12.8 11.4c4.4 4 15.2 14.2 24 22.8s19.6 19 24 23c9.8 9 7 6.4 32.6 31 11.8 11.3 23.4 22.4 25.9 24.5 7.2 6.3 29.3 27.2 46 43.5 5.8 5.6 17 16.1 25 23.3l17 15.5c16.1 14.8 51.4 17.1 71 4.5 2-1.2 12.3-10.8 23-21.4s28.5-27.5 39.5-37.8 22.5-21 25.6-24.1l24-23.1 29.9-28.5c26.3-25.1 47-44.6 53.5-50.6 17.7-16.2 22.8-21.6 24.7-25.9 10.7-24.2 8.6-54-5-71.9-9-11.9-16.3-17-32.2-22.7-9-3.3-35.2-3.5-45-.4-3.4 1.1-6.8 2-7.4 2-4.2 0-10.4 4.6-28 21.3-28.2 26.5-41.3 39.1-75.1 72.2a2092 2092 0 0 1-49.2 47c-7.8 6.4-14.6 5.4-24.1-3.7L353.5 182c-12.6-11.8-30-28.3-38.5-36.6s-18.4-17.7-22-21L273 106c-34-31.8-32-30.3-45-34.6-7.3-2.5-42-3.2-46-1M387.5 440c-15.5 2.1-24.2 8.4-60 43.5l-30 29.2-23 22.2c-6 5.9-20.7 19.8-32.5 31l-36.5 35c-21.1 20.7-21.1 20.6-40.8 39.4-20.5 19.6-22.5 22.2-25.5 33.7-2.5 9.6-3.2 36.8-1.1 42.9l1.1 3.1h68.2c63.7 0 68.3-.1 69.7-1.7.9-1 6.2-6 12-11.3 5.7-5.2 16.5-15.3 23.9-22.6 13.8-13.4 16.7-16.1 26.1-25l23.4-22c29.4-27.7 26.4-25.4 34.1-25.4 6 0 7 .3 10.3 3.2 3.8 3.3 40.9 39 67.6 65a1330 1330 0 0 0 36 34l5.8 5.8h135.4l1.2-5.7c1.4-7 1.4-28 0-35.9-2.3-13.3-4.3-16.5-18.4-30.1l-29-28.2c-34.6-33.6-50.5-49-61-59-6-5.7-19.1-18.3-29-28s-21.8-21.2-26.5-25.5-16-15.2-25-24c-40.2-39.2-45.2-42.7-63.5-44a78 78 0 0 0-13 .4"/>
</svg>
