<svg xmlns="http://www.w3.org/2000/svg" viewBox="0 0 520 320" width="520" height="320">
  <defs>
    <linearGradient id="sg-v-grad" x1="0.5" y1="0" x2="0.5" y2="1">
      <stop offset="0%" stop-color="#E91E8B"/>
      <stop offset="55%" stop-color="#E8606A"/>
      <stop offset="100%" stop-color="#F5A623"/>
    </linearGradient>
  </defs>
  <g transform="translate(165, 0) scale(0.06)">
    <path
      fill="url(#sg-v-grad)"
      fill-rule="evenodd"
      d="M 1227.926 165.283 C 1084.061 256.152, 848.333 404.975, 704.087 496 C 143.278 849.893, 0.898 939.874, 0.702 940.520 C 0.511 941.157, 46.951 970.583, 322 1144.106 C 386.625 1184.876, 560.111 1294.344, 707.525 1387.367 C 854.938 1480.390, 983.074 1561.225, 992.270 1567 L 1008.991 1577.500 1008.996 1936.727 L 1009 2295.953 995.750 2287.554 C 988.462 2282.934, 867.300 2206.423, 726.500 2117.530 L 470.500 1955.906 470 1788.297 L 469.500 1620.689 250.500 1482.331 C 130.050 1406.234, 24.412 1339.500, 15.749 1334.032 L -0.002 1324.090 0.249 1769.783 L 0.500 2215.476 35.500 2237.559 C 90.903 2272.517, 665.174 2635.136, 864.500 2761.026 C 964.050 2823.899, 1046.178 2875.377, 1047.006 2875.421 C 1047.835 2875.464, 1145.372 2814.365, 1263.756 2739.644 L 1479 2603.789 1479 1960.610 L 1479 1317.431 1475.750 1315.528 C 1473.963 1314.481, 1387 1259.639, 1282.500 1193.657 C 1178 1127.675, 1045.475 1044.025, 988 1007.767 C 930.525 971.509, 883.144 941.501, 882.709 941.081 C 882.275 940.662, 896.225 931.304, 913.709 920.286 C 931.194 909.267, 1067.811 823.021, 1217.302 728.626 C 1366.794 634.232, 1489.525 557, 1490.038 557 C 1490.551 557, 1609.413 631.764, 1754.175 723.143 C 1898.937 814.521, 2017.892 889.334, 2018.520 889.393 C 2019.708 889.504, 2458.941 612.880, 2458.973 612 C 2458.983 611.725, 2401.506 575.218, 2331.246 530.872 C 2260.986 486.527, 2043.300 349.108, 1847.500 225.496 C 1651.700 101.884, 1491.050 0.594, 1490.500 0.407 C 1489.950 0.219, 1371.792 74.414, 1227.926 165.283 M 2531.500 665.850 C 2528.200 667.960, 2435.050 726.756, 2324.500 796.509 C 2213.950 866.261, 2015.050 991.810, 1882.500 1075.507 C 1749.950 1159.203, 1625.525 1237.709, 1606 1249.963 C 1586.475 1262.218, 1569.935 1272.770, 1569.245 1273.412 C 1568.072 1274.505, 1567.213 2546.546, 1568.385 2547.718 C 1568.677 2548.010, 1803.713 2400.554, 2020.500 2264.072 L 2037.500 2253.369 2037.794 1893.435 L 2038.089 1533.500 2273.794 1384.756 L 2509.500 1236.013 2509.765 1643.756 C 2510.026 2045.009, 2510 2051.525, 2508.107 2053.086 C 2507.050 2053.958, 2313.205 2176.535, 2077.342 2325.479 C 1841.479 2474.424, 1647.933 2596.805, 1647.241 2597.438 C 1646.038 2598.538, 2006.643 2827.376, 2009.473 2827.309 C 2010.038 2827.295, 2020.400 2820.992, 2032.500 2813.302 C 2044.600 2805.611, 2109.175 2764.746, 2176 2722.489 C 2242.825 2680.233, 2341.600 2617.755, 2395.500 2583.649 C 2449.400 2549.544, 2579 2467.669, 2683.500 2401.704 C 2788 2335.740, 2897.463 2266.637, 2926.750 2248.143 L 2980 2214.517 2979.983 1577.509 L 2979.966 940.500 2759.806 801.500 C 2638.719 725.050, 2539.164 662.391, 2538.573 662.257 C 2537.983 662.123, 2534.800 663.740, 2531.500 665.850 M 1349 2785.594 C 1229.375 2861.165, 1130.409 2923.807, 1129.076 2924.799 L 1126.652 2926.603 1160.076 2947.670 C 1178.459 2959.257, 1260.207 3010.848, 1341.739 3062.317 L 1489.977 3155.896 1708.739 3017.839 C 1829.057 2941.908, 1928.050 2879.265, 1928.723 2878.632 C 1929.686 2877.727, 1612.122 2675.584, 1570.087 2650.346 L 1566.500 2648.192 1349 2785.594"
    />
  </g>
  <text
    x="260"
    y="290"
    text-anchor="middle"
    font-family="'Plus Jakarta Sans', system-ui, sans-serif"
    font-weight="700"
    font-size="32"
    letter-spacing="0.06em"
    fill="#E8606A"
  >SINGULARIDADE<tspan fill="#E91E8B">.</tspan>DIGITAL</text>
</svg>
