<?xml version="1.0" encoding="UTF-8" standalone="no"?>
<!-- Created with Inkscape (http://www.inkscape.org/) -->

<svg
   version="1.1"
   id="svg5669"
   width="210mm"
   height="297mm"
   viewBox="0 0 793.7008 1122.5197"
   sodipodi:docname="identidade_visual_singularidade_digital_v1.svg"
   inkscape:version="1.1.1 (3bf5ae0d25, 2021-09-20)"
   inkscape:export-filename="/mnt/aux_drive_linux_nvme/Workspace/SINGULARIDADE.DIGITAL/PUBLICIDADE E PROPAGANDA/IDENTIDADE VISUAL/v1/exports/identidade_visual_singularidade_digital_v1_1200dpi.png"
   inkscape:export-xdpi="1199.9576"
   inkscape:export-ydpi="1199.9576"
   xmlns:inkscape="http://www.inkscape.org/namespaces/inkscape"
   xmlns:sodipodi="http://sodipodi.sourceforge.net/DTD/sodipodi-0.dtd"
   xmlns:xlink="http://www.w3.org/1999/xlink"
   xmlns="http://www.w3.org/2000/svg"
   xmlns:svg="http://www.w3.org/2000/svg"
   xmlns:rdf="http://www.w3.org/1999/02/22-rdf-syntax-ns#"
   xmlns:cc="http://creativecommons.org/ns#"
   xmlns:dc="http://purl.org/dc/elements/1.1/">
  <metadata
     id="metadata5675">
    <rdf:RDF>
      <cc:Work
         rdf:about="">
        <dc:format>image/svg+xml</dc:format>
        <dc:type
           rdf:resource="http://purl.org/dc/dcmitype/StillImage" />
        <dc:title />
      </cc:Work>
    </rdf:RDF>
  </metadata>
  <defs
     id="defs5673">
    <inkscape:perspective
       sodipodi:type="inkscape:persp3d"
       inkscape:vp_x="410.03244 : 560.57672 : 1"
       inkscape:vp_y="0 : 118.19748 : 0"
       inkscape:vp_z="189.30669 : 560.57672 : 1"
       inkscape:persp3d-origin="299.66956 : 545.84143 : 1"
       id="perspective537" />
    <inkscape:perspective
       sodipodi:type="inkscape:persp3d"
       inkscape:vp_x="384.3812 : 662.343 : 1"
       inkscape:vp_y="0 : 99.631654 : 0"
       inkscape:vp_z="198.32587 : 662.343 : 1"
       inkscape:persp3d-origin="291.35353 : 649.92225 : 1"
       id="perspective325" />
    <clipPath
       clipPathUnits="userSpaceOnUse"
       id="clipPath11418">
      <g
         inkscape:label="Clip"
         id="use11420">
        <path
           style="fill:#62a4d9"
           d="m 2693.278,796.44222 c -0.825,-0.5438 -3.4304,-0.9955 -5.7898,-1.004 -5.4005,-0.019 -11.9928,-3.3134 -13.2505,-6.6212 -0.5973,-1.5711 -0.9686,-59.9932 -0.9834,-154.7092 -0.013,-83.7017 -0.4538,-241.9011 -0.9795,-351.5542 -0.5736,-119.6629 -0.5929,-202.876396 -0.048,-208.141296 1.0988,-10.6208 4.4394,-18.0569 9.3067,-20.7164 3.0736,-1.6794 14.6009,-1.7868 218.4948,-2.0342 214.2443,-0.26 215.25,-0.2519 215.25,1.7269 0,2.5367 -2.903,4.4131 -11.5684,7.4778 -3.8124,1.3484 -17.9566,6.3363 -31.4316,11.0843 -46.0922,16.240895 -72.5168,25.650795 -108.0758,38.486096 -19.5667,7.0628 -45.4417,16.2759 -57.5,20.4736 -42.7157,14.8701 -48.763,18.0504 -51.3638,27.0125 -0.6694,2.3067 -1.5427,17.5463 -2.0631,36 -1.074,38.09 -1.1525,368.4009 -0.1047,440.5 0.8117,55.8528 0.5152,53.4434 7.5954,61.715 5.955,6.9571 10.5042,8.8448 81.012,33.6164 29.5449,10.38 77.863,27.4087 121,42.6437 28.9059,10.209 37.614,13.6272 41.6564,16.3514 5.5271,3.7247 4.4563,4.957 -5.6564,6.5096 -7.3604,1.1301 -44.98,1.4537 -206.5,1.7768 -129.1457,0.2583 -198.0192,0.053 -199,-0.5936 z m 513.6924,0.367 c -0.1058,-0.091 -13.6924,-0.4776 -30.1924,-0.8598 -16.5,-0.3821 -31.9584,-1.1191 -34.3521,-1.6378 -5.5779,-1.2085 -9.6726,-3.3369 -10.7767,-5.6017 -1.0882,-2.2321 -1.7267,-715.562196 -0.651,-727.286996 l 0.7798,-8.5 h 103.0446 c 116.2037,0 106.6561,-0.6762 110.5173,7.828 1.8477,4.0696 1.8948,13.0899 1.9162,367.299596 0.019,312.0246 -0.1774,363.2929 -1.3942,364.3029 -2.6279,2.1809 -18.878,3.044 -68.0839,3.616 -26.95,0.3132 -53.8634,0.6675 -59.8076,0.7872 -5.9443,0.1197 -10.8943,0.1434 -11,0.053 z m 677.8076,-21.0701 c -21.3546,-2.5012 -48.1585,-13.0945 -63.9404,-25.2702 -7.6862,-5.9298 -21.3141,-20.3529 -27.466,-29.0686 -13.3575,-18.9241 -21.6548,-41.8846 -24.5654,-67.9774 -1.2248,-10.9798 -1.2052,-14.0202 0.1608,-25 3.7203,-29.9009 16.4077,-59.189 33.7418,-77.8902 23.4314,-25.2796 49.751,-38.6018 84.0692,-42.5535 20.9573,-2.4132 45.051,0.3891 63.0594,7.3342 9.0355,3.4847 24.2428,12.4628 33.3735,19.7032 3.403,2.6985 7.8477,6.1769 9.8772,7.7298 2.0294,1.5529 3.6899,3.4086 3.6899,4.1237 0,2.2013 -33.9603,31.5528 -36.5073,31.5528 -0.6461,0 -2.991,-1.5546 -5.2107,-3.4546 -5.06,-4.3311 -17.7157,-10.9617 -26.8567,-14.0708 -27.4861,-9.3486 -62.1887,-2.9508 -80.1024,14.7678 -9.9784,9.8698 -16.264,19.0461 -20.7345,30.2697 -5.7509,14.4384 -7.0576,21.0005 -7.0666,35.4879 -0.01,14.0265 1.7814,23.3887 6.9963,36.5892 4.3853,11.1008 6.8631,15.0102 15.1106,23.8415 10.6617,11.4165 19.3955,16.9767 34.8713,22.2003 7.7793,2.6258 9.6445,2.8613 22,2.7778 15.8698,-0.1073 30.1858,-3.095 42.2186,-8.8109 8.2312,-3.9099 20.6685,-14.0845 25.5393,-20.8931 6.0946,-8.5189 12.0594,-24.554 10.7125,-28.7979 -0.6386,-2.012 0.1868,-1.9775 -56.9704,-2.3802 -3.85,-0.027 -7.5625,-0.4083 -8.25,-0.847 -0.9373,-0.5982 -1.25,-6.2473 -1.25,-22.5849 v -21.7873 l 19.25,-0.6781 c 29.6859,-1.0459 94.5733,-0.7243 95.3128,0.4724 1.9761,3.1972 0.4846,55.6575 -1.8876,66.3982 -4.4232,20.0275 -11.9223,33.6685 -27.1336,49.3563 -16.2671,16.7769 -33.5378,26.8868 -59.2727,34.6972 -17.7293,5.3808 -34.5392,6.898 -52.7689,4.7627 z m -454.9634,-6.5662 c -0.3487,-3.9875 -0.4996,-64.625 -0.3353,-134.75 l 0.2987,-127.5 26,0.085 c 52.3336,0.1713 80.2984,4.804 110.4179,18.2921 27.3754,12.2593 41.7838,23.6698 57.6092,45.6229 21.3761,29.6528 27.0177,69.9031 15.348,109.5 -3.5423,12.0195 -5.2061,15.5732 -12.1733,26 -10.6263,15.9029 -23.0292,29.3409 -33.569,36.3703 -23.1929,15.4685 -52.1602,26.6543 -79.1327,30.5574 -11.1203,1.6091 -40.7757,3.0313 -63.6647,3.0531 l -20.1647,0.019 z m 81.9635,-40.8633 c 9.1953,-1.1752 25.452,-6.3198 34.6714,-10.9721 16.4867,-8.3196 27.3373,-18.0495 35.5907,-31.9146 6.0443,-10.1539 9.636,-20.3154 11.8945,-33.6518 1.4351,-8.4741 1.4986,-11.2434 0.4548,-19.8482 -2.9171,-24.0469 -10.5435,-40.3059 -25.3249,-53.9912 -15.6266,-14.4679 -36.2543,-21.2773 -71.6939,-23.6667 -14.81,-0.9986 -18.2245,-0.9776 -19.5474,0.1203 -1.4518,1.205 -1.5766,9.4703 -1.324,87.7207 0.2436,75.5054 0.4677,86.5083 1.7787,87.3257 1.7165,1.0701 21.5428,0.4061 33.5001,-1.1221 z m 170.6511,46.7955 c -1.2763,-1.5378 -1.6892,-267.657 -0.4153,-267.7199 0.4202,-0.021 10.6641,-0.1333 22.7641,-0.25 l 22,-0.2123 0.2536,134.75 0.2536,134.75 h -21.8811 c -16.8855,0 -22.1309,-0.3008 -22.9749,-1.3178 z m 380.8488,0.4362 -3.5,-0.6184 -0.2536,-133.6284 -0.2537,-133.6285 16.326,-0.7202 c 8.9793,-0.396 19.331,-0.3983 23.0037,0 l 6.6776,0.7152 v 134.3835 134.3835 l -19.25,-0.1317 c -10.5876,-0.072 -20.825,-0.4099 -22.75,-0.75 z m 156.9086,0.1909 -2.5915,-0.4115 -0.6585,-24.1108 c -0.3623,-13.261 -0.6586,-62.423 -0.6586,-109.2489 0,-64.8852 -0.2855,-85.4235 -1.2,-86.3381 -0.8642,-0.8642 -8.3493,-1.233 -26.75,-1.3181 -14.0525,-0.065 -31.625,-0.4025 -39.05,-0.75 l -13.5,-0.6319 -0.3054,-22.6411 -0.3053,-22.6411 16.3053,-0.6717 c 8.968,-0.3694 55.6804,-0.5309 103.8054,-0.3588 l 87.5,0.3127 v 23.5 23.5 l -38.6376,0.1 c -21.2507,0.055 -39.3612,0.3776 -40.2456,0.717 -1.4618,0.5609 -1.6312,10.6467 -1.8624,110.9001 l -0.2544,110.283 -19.5,0.1104 c -10.725,0.061 -20.6662,-0.075 -22.0914,-0.3011 z m 114.6025,-0.2913 c -0.346,-0.5599 -0.3588,-1.4554 -0.028,-1.9901 0.3304,-0.5347 5.6919,-14.1472 11.9145,-30.25 6.2225,-16.1028 18.6205,-48.1779 27.551,-71.2779 8.9305,-23.1 21.8694,-56.625 28.7528,-74.5 37.1222,-96.4001 36.1699,-94 37.3014,-94 0.3749,0 1.9257,3.2625 3.4463,7.25 1.5206,3.9875 5.8271,15.125 9.5699,24.75 8.0369,20.6676 57.8204,151.0639 75.9755,199 6.9782,18.425 13.4725,35.0142 14.4318,36.8649 1.0398,2.006 1.379,3.7302 0.8399,4.2693 -0.5026,0.5025 -11.0733,0.7847 -23.7923,0.6351 l -22.8882,-0.2693 -6.3374,-15.5 c -3.4856,-8.525 -6.8912,-16.0577 -7.568,-16.7394 -1.9497,-1.9637 -86.3763,-1.9931 -88.3387,-0.031 -0.7856,0.7856 -4.0448,8.3678 -7.2428,16.8493 l -5.8143,15.4209 -23.5723,0.2679 c -15.2023,0.1728 -23.7954,-0.093 -24.2011,-0.75 z m 131.2955,-75.2504 c 0.2836,-1.4748 -21.2387,-59.4419 -23.6759,-63.7676 -2.4436,-4.3369 -3.8412,-2.0963 -12.6026,20.2044 -4.8177,12.2626 -10.7198,26.9899 -13.1156,32.7272 -3.2982,7.8985 -4.087,10.7558 -3.2481,11.7666 0.8821,1.0629 6.3267,1.2807 26.7085,1.0684 23.3635,-0.2433 25.6296,-0.4179 25.9337,-1.999 z m 112.4141,74.488 c -0.3964,-0.9656 -0.7207,-61.3806 -0.7207,-134.2556 v -132.5 l 12,-0.6578 c 6.6,-0.3618 17.0625,-0.4083 23.25,-0.1033 l 11.25,0.5546 v 109.2715 c 0,60.0993 0.2731,109.9833 0.607,110.8532 0.5447,1.4194 7.118,1.5818 64.0184,1.5818 h 63.4115 l -0.2685,23.25 -0.2684,23.25 -86.2793,0.2556 c -81.4722,0.2413 -86.3194,0.1577 -87,-1.5 z M 3519.7781,456.31832 c -31.9614,-2.3412 -73.0086,-2.9105 -82.4702,-1.1438 -3.5585,0.6645 -6.8227,0.8556 -7.2536,0.4247 -0.431,-0.431 -0.6694,-60.8344 -0.5299,-134.2299 l 0.2536,-133.4464 h 23 23 l 0.6084,63.5 c 0.3346,34.925 0.6721,84.5054 0.75,110.1786 0.1243,40.9771 0.3336,46.8705 1.7131,48.25 1.2447,1.2448 3.8952,1.5659 12.75,1.5447 6.1482,-0.015 25.0625,0.7438 42.0317,1.6855 35.4217,1.9657 37.2244,1.8114 54.4412,-4.6589 6.2118,-2.3345 11.4964,-4.0425 11.7434,-3.7955 0.5487,0.5488 17.4623,36.7016 17.4623,37.3259 0,0.92 -14.5191,7.7083 -22.3533,10.451 -15.6492,5.4788 -37.9377,6.6398 -75.1467,3.9141 z m 265.6129,-2.0621 c -1.0381,-2.3833 -7.1712,-16.4833 -13.6292,-31.3333 -12.7879,-29.4049 -22.0176,-50.5366 -31.2329,-71.5072 -3.2645,-7.429 -6.5151,-15.304 -7.2235,-17.5 -1.8848,-5.8423 -3.1055,-7.1064 -4.7248,-4.8919 -0.7164,0.9798 -1.3026,2.657 -1.3026,3.7271 0,2.2621 -2.8388,11.4633 -23.192,75.172 -8.2584,25.85 -15.5311,47.6317 -16.1616,48.4038 -0.9553,1.1697 -5.5446,1.3002 -27.5304,0.7826 -14.5112,-0.3416 -26.5409,-0.778 -26.7326,-0.9697 -0.1917,-0.1917 0.1081,-1.6689 0.6662,-3.2826 0.5581,-1.6137 5.7836,-18.4591 11.6121,-37.4341 5.8286,-18.975 14.3071,-46.425 18.8411,-61 17.7601,-57.0899 20.924,-67.2693 27.6628,-89 3.8376,-12.375 10.5204,-33.75 14.8509,-47.5 4.3304,-13.75 8.424,-27.025 9.097,-29.5 1.728,-6.3547 2.3741,-6.6554 3.8296,-1.7821 1.1531,3.861 6.1304,15.4382 29.5708,68.7821 6.9178,15.7428 19.4429,45.1457 27.4924,64.539 4.8892,11.7792 9.8001,21.461 10.8857,21.461 0.4747,0 1.3108,-0.5625 1.858,-1.25 0.8958,-1.1255 21.6222,-49.3848 52.2823,-121.7342 12.8344,-30.2856 14.0776,-33.0158 15.0341,-33.0158 0.3829,0 1.2,2.0008 1.8156,4.4463 1.204,4.7813 9.1409,30.5078 25.6229,83.0537 5.6931,18.15 15.829,50.55 22.5244,72 6.6953,21.45 17.279,55.2 23.5195,75 6.2405,19.8 10.9908,36.3566 10.5563,36.7924 -0.4345,0.4359 -12.8984,0.6609 -27.6975,0.5 l -26.9076,-0.2924 -8.2762,-26.5 c -4.5519,-14.575 -12.3119,-39.1 -17.2445,-54.5 -4.9327,-15.4 -9.995,-32.0461 -11.2499,-36.9913 -2.8079,-11.0662 -4.8146,-12.3282 -7.1419,-4.4917 -0.8398,2.8279 -3.9794,10.6184 -6.9768,17.3123 -2.9975,6.6939 -7.9944,18.0207 -11.104,25.1707 -3.1096,7.15 -6.2739,14.35 -7.0318,16 -1.9101,4.1576 -21.5905,49.4545 -25.1727,57.9379 -1.6113,3.8159 -3.4635,7.1158 -4.1158,7.3333 -0.6524,0.2175 -2.0355,-1.5546 -3.0734,-3.9379 z m 187.137,2.1456 -2.25,-0.9144 v -134.0503 -134.0504 l 23.4671,0.2681 23.4671,0.2681 0.245,134.5 0.2451,134.5 -21.4621,0.1967 c -11.8042,0.1081 -22.4747,-0.2149 -23.7122,-0.7178 z m 83.426,0.2711 c -0.4762,-0.808 4.7692,-15.0639 20.3289,-55.25 5.4304,-14.025 21.1685,-54.975 34.9736,-91 43.2195,-112.7828 48.4041,-126.1411 49.5843,-127.7551 0.9439,-1.2909 1.6933,0.019 4.1993,7.3419 1.6777,4.9023 16.3191,43.3382 32.5365,85.4132 37.2445,96.6283 50.7719,131.916 59.141,154.2756 3.6594,9.7765 7.5238,19.8064 8.5879,22.2886 1.4674,3.4236 1.6322,4.6292 0.6819,4.9939 -0.6891,0.2643 -11.5778,0.3594 -24.1972,0.2113 l -22.9445,-0.2694 -6.3275,-16 c -3.4801,-8.8 -6.8775,-16.5535 -7.5497,-17.2301 -0.9275,-0.9335 -11.5834,-1.2448 -44.1896,-1.2913 -47.6061,-0.068 -44.4253,-0.512 -46.3653,6.4752 -1.6096,5.7973 -10.4305,27.0492 -11.5309,27.7809 -1.4585,0.9699 -46.3576,0.9846 -46.9287,0.015 z m 131.2174,-75.1629 c 0.7663,-0.4853 1.1669,-1.7159 0.8903,-2.7347 -0.393,-1.4469 -20.5169,-52.6136 -24.8181,-63.1024 -2.0353,-4.9629 -2.7291,-3.6737 -13.9692,25.956 -4.4428,11.7117 -9.412,24.669 -11.0425,28.794 -3.2457,8.211 -3.6006,10.5724 -1.7039,11.3377 2.2173,0.8948 49.2018,0.6622 50.6434,-0.2506 z m 111.353,75.0969 c -0.9967,-0.6412 -1.2017,-28.359 -1,-135.2452 l 0.2536,-134.4388 58.5,-0.2785 c 62.9012,-0.2995 73.3387,0.2115 87.5,4.2839 26.3421,7.5751 41.8674,20.1547 53.0628,42.9946 8.0498,16.4229 9.9574,25.2363 9.8483,45.5 -0.082,15.2034 -0.3073,17.168 -2.8682,25 -8.7347,26.7135 -26.3093,44.4422 -53.5109,53.98 -8.3813,2.9387 -9.4147,4.4397 -6.04,8.7727 3.0206,3.8783 62.008,89.3397 62.008,89.8376 0,0.2253 -12.56,0.4097 -27.9111,0.4097 h -27.9111 l -2.3389,-2.9078 c -1.2864,-1.5993 -5.1317,-6.8868 -8.5452,-11.75 -12.6616,-18.0392 -48.2429,-68.9688 -50.7156,-72.5922 l -2.5591,-3.75 h -20.0417 c -19.862,0 -20.0495,0.02 -20.9037,2.25 -0.474,1.2375 -0.8742,21.6 -0.8892,45.25 l -0.027,43 -22.3286,0.2452 c -12.2807,0.1349 -22.8928,-0.1177 -23.5822,-0.5612 z m 111.6181,-139.207 c 14.1641,-1.2537 18.8609,-2.3936 27.4114,-6.6529 11.3639,-5.6608 17.5827,-13.8473 19.8837,-26.1751 3.1551,-16.9045 -3.8554,-32.3209 -19.1695,-42.1536 -9.3603,-6.01 -22.8428,-7.731 -64.1521,-8.1888 -15.2141,-0.1686 -28.0391,0.072 -28.5,0.5348 -1.3865,1.3921 -0.7019,80.5154 0.7114,82.2182 0.984,1.1858 5.7265,1.4389 26.8229,1.4319 14.0952,-0.01 30.7417,-0.4612 36.9922,-1.0145 z m -862.1978,48.3564 c -0.3666,-0.3667 -0.6666,-40.6417 -0.6666,-89.5 v -88.8334 h 23.5 23.5 l 0.1178,84.25 c 0.065,46.3375 0.2199,85.825 0.3447,87.75 0.4822,7.4431 1.9609,7 -23.3633,7 -12.5212,0 -23.0659,-0.3 -23.4326,-0.6666 z"
           id="path11424"
           inkscape:connector-curvature="0" />
      </g>
    </clipPath>
    <inkscape:perspective
       sodipodi:type="inkscape:persp3d"
       inkscape:vp_x="522.68767 : 852.35674 : 1"
       inkscape:vp_y="0 : 213.34574 : 0"
       inkscape:vp_z="124.27904 : 852.35674 : 1"
       inkscape:persp3d-origin="323.48335 : 825.75963 : 1"
       id="perspective829-7" />
    <inkscape:perspective
       sodipodi:type="inkscape:persp3d"
       inkscape:vp_x="308.78312 : 843.84918 : 1"
       inkscape:vp_y="0 : 213.34574 : 0"
       inkscape:vp_z="-89.62551 : 843.84918 : 1"
       inkscape:persp3d-origin="109.57879 : 817.25207 : 1"
       id="perspective829-3" />
    <inkscape:perspective
       sodipodi:type="inkscape:persp3d"
       inkscape:vp_x="828.68331 : 755.79637 : 1"
       inkscape:vp_y="0 : 213.34574 : 0"
       inkscape:vp_z="430.27468 : 755.79637 : 1"
       inkscape:persp3d-origin="629.47898 : 729.19926 : 1"
       id="perspective829-36" />
    <linearGradient
       x1="0"
       y1="0"
       x2="1"
       y2="0"
       gradientUnits="userSpaceOnUse"
       gradientTransform="matrix(0,-435.70334,-435.70334,0,1005.5189,1268.7789)"
       spreadMethod="pad"
       id="linearGradient26">
      <stop
         style="stop-opacity:1;stop-color:#ed1e79"
         offset="0"
         id="stop22" />
      <stop
         style="stop-opacity:1;stop-color:#f7931e"
         offset="1"
         id="stop24" />
    </linearGradient>
    <linearGradient
       x1="0"
       y1="0"
       x2="1"
       y2="0"
       gradientUnits="userSpaceOnUse"
       gradientTransform="matrix(0,-435.69766,-435.69766,0,962.492,1268.7769)"
       spreadMethod="pad"
       id="linearGradient46">
      <stop
         style="stop-opacity:1;stop-color:#ed1e79"
         offset="0"
         id="stop42" />
      <stop
         style="stop-opacity:1;stop-color:#f7931e"
         offset="1"
         id="stop44" />
    </linearGradient>
    <linearGradient
       x1="0"
       y1="0"
       x2="1"
       y2="0"
       gradientUnits="userSpaceOnUse"
       gradientTransform="matrix(0,-435.70334,-435.70334,0,1112.9375,1268.7789)"
       spreadMethod="pad"
       id="linearGradient66">
      <stop
         style="stop-opacity:1;stop-color:#ed1e79"
         offset="0"
         id="stop62" />
      <stop
         style="stop-opacity:1;stop-color:#f7931e"
         offset="1"
         id="stop64" />
    </linearGradient>
    <linearGradient
       x1="0"
       y1="0"
       x2="1"
       y2="0"
       gradientUnits="userSpaceOnUse"
       gradientTransform="matrix(0,-36.098629,-36.098629,0,459.73682,757)"
       spreadMethod="pad"
       id="linearGradient86">
      <stop
         style="stop-opacity:1;stop-color:#ed1e79"
         offset="0"
         id="stop82" />
      <stop
         style="stop-opacity:1;stop-color:#f7931e"
         offset="1"
         id="stop84" />
    </linearGradient>
    <linearGradient
       x1="0"
       y1="0"
       x2="1"
       y2="0"
       gradientUnits="userSpaceOnUse"
       gradientTransform="matrix(0,-36.098629,-36.098629,0,504.48437,757)"
       spreadMethod="pad"
       id="linearGradient106">
      <stop
         style="stop-opacity:1;stop-color:#ed1e79"
         offset="0"
         id="stop102" />
      <stop
         style="stop-opacity:1;stop-color:#f7931e"
         offset="1"
         id="stop104" />
    </linearGradient>
    <linearGradient
       x1="0"
       y1="0"
       x2="1"
       y2="0"
       gradientUnits="userSpaceOnUse"
       gradientTransform="matrix(0,-36.098629,-36.098629,0,549.23193,757)"
       spreadMethod="pad"
       id="linearGradient126">
      <stop
         style="stop-opacity:1;stop-color:#ed1e79"
         offset="0"
         id="stop122" />
      <stop
         style="stop-opacity:1;stop-color:#f7931e"
         offset="1"
         id="stop124" />
    </linearGradient>
    <linearGradient
       x1="0"
       y1="0"
       x2="1"
       y2="0"
       gradientUnits="userSpaceOnUse"
       gradientTransform="matrix(0,-36.098629,-36.098629,0,611.32275,757)"
       spreadMethod="pad"
       id="linearGradient146">
      <stop
         style="stop-opacity:1;stop-color:#ed1e79"
         offset="0"
         id="stop142" />
      <stop
         style="stop-opacity:1;stop-color:#f7931e"
         offset="1"
         id="stop144" />
    </linearGradient>
    <linearGradient
       x1="0"
       y1="0"
       x2="1"
       y2="0"
       gradientUnits="userSpaceOnUse"
       gradientTransform="matrix(0,-36.098629,-36.098629,0,673.41309,757)"
       spreadMethod="pad"
       id="linearGradient166">
      <stop
         style="stop-opacity:1;stop-color:#ed1e79"
         offset="0"
         id="stop162" />
      <stop
         style="stop-opacity:1;stop-color:#f7931e"
         offset="1"
         id="stop164" />
    </linearGradient>
    <linearGradient
       x1="0"
       y1="0"
       x2="1"
       y2="0"
       gradientUnits="userSpaceOnUse"
       gradientTransform="matrix(0,-36.098629,-36.098629,0,735.50391,757)"
       spreadMethod="pad"
       id="linearGradient186">
      <stop
         style="stop-opacity:1;stop-color:#ed1e79"
         offset="0"
         id="stop182" />
      <stop
         style="stop-opacity:1;stop-color:#f7931e"
         offset="1"
         id="stop184" />
    </linearGradient>
    <linearGradient
       x1="0"
       y1="0"
       x2="1"
       y2="0"
       gradientUnits="userSpaceOnUse"
       gradientTransform="matrix(0,-36.098629,-36.098629,0,799.6189,757)"
       spreadMethod="pad"
       id="linearGradient206">
      <stop
         style="stop-opacity:1;stop-color:#ed1e79"
         offset="0"
         id="stop202" />
      <stop
         style="stop-opacity:1;stop-color:#f7931e"
         offset="1"
         id="stop204" />
    </linearGradient>
    <linearGradient
       x1="0"
       y1="0"
       x2="1"
       y2="0"
       gradientUnits="userSpaceOnUse"
       gradientTransform="matrix(0,-36.098629,-36.098629,0,863.7334,757)"
       spreadMethod="pad"
       id="linearGradient226">
      <stop
         style="stop-opacity:1;stop-color:#ed1e79"
         offset="0"
         id="stop222" />
      <stop
         style="stop-opacity:1;stop-color:#f7931e"
         offset="1"
         id="stop224" />
    </linearGradient>
    <linearGradient
       x1="0"
       y1="0"
       x2="1"
       y2="0"
       gradientUnits="userSpaceOnUse"
       gradientTransform="matrix(0,-36.098629,-36.098629,0,908.48096,757)"
       spreadMethod="pad"
       id="linearGradient246">
      <stop
         style="stop-opacity:1;stop-color:#ed1e79"
         offset="0"
         id="stop242" />
      <stop
         style="stop-opacity:1;stop-color:#f7931e"
         offset="1"
         id="stop244" />
    </linearGradient>
    <linearGradient
       x1="0"
       y1="0"
       x2="1"
       y2="0"
       gradientUnits="userSpaceOnUse"
       gradientTransform="matrix(0,-36.098629,-36.098629,0,953.22852,757)"
       spreadMethod="pad"
       id="linearGradient266">
      <stop
         style="stop-opacity:1;stop-color:#ed1e79"
         offset="0"
         id="stop262" />
      <stop
         style="stop-opacity:1;stop-color:#f7931e"
         offset="1"
         id="stop264" />
    </linearGradient>
    <linearGradient
       x1="0"
       y1="0"
       x2="1"
       y2="0"
       gradientUnits="userSpaceOnUse"
       gradientTransform="matrix(0,-36.098629,-36.098629,0,1017.3435,757)"
       spreadMethod="pad"
       id="linearGradient286">
      <stop
         style="stop-opacity:1;stop-color:#ed1e79"
         offset="0"
         id="stop282" />
      <stop
         style="stop-opacity:1;stop-color:#f7931e"
         offset="1"
         id="stop284" />
    </linearGradient>
    <linearGradient
       x1="0"
       y1="0"
       x2="1"
       y2="0"
       gradientUnits="userSpaceOnUse"
       gradientTransform="matrix(0,-36.098629,-36.098629,0,1081.458,757)"
       spreadMethod="pad"
       id="linearGradient306">
      <stop
         style="stop-opacity:1;stop-color:#ed1e79"
         offset="0"
         id="stop302" />
      <stop
         style="stop-opacity:1;stop-color:#f7931e"
         offset="1"
         id="stop304" />
    </linearGradient>
    <linearGradient
       x1="0"
       y1="0"
       x2="1"
       y2="0"
       gradientUnits="userSpaceOnUse"
       gradientTransform="matrix(0,-36.098629,-36.098629,0,1143.5488,757)"
       spreadMethod="pad"
       id="linearGradient326">
      <stop
         style="stop-opacity:1;stop-color:#ed1e79"
         offset="0"
         id="stop322" />
      <stop
         style="stop-opacity:1;stop-color:#f7931e"
         offset="1"
         id="stop324" />
    </linearGradient>
    <linearGradient
       x1="0"
       y1="0"
       x2="1"
       y2="0"
       gradientUnits="userSpaceOnUse"
       gradientTransform="matrix(0,-36.098629,-36.098629,0,1188.2964,757)"
       spreadMethod="pad"
       id="linearGradient346">
      <stop
         style="stop-opacity:1;stop-color:#ed1e79"
         offset="0"
         id="stop342" />
      <stop
         style="stop-opacity:1;stop-color:#f7931e"
         offset="1"
         id="stop344" />
    </linearGradient>
    <linearGradient
       x1="0"
       y1="0"
       x2="1"
       y2="0"
       gradientUnits="userSpaceOnUse"
       gradientTransform="matrix(0,-36.098629,-36.098629,0,1233.0439,757)"
       spreadMethod="pad"
       id="linearGradient366">
      <stop
         style="stop-opacity:1;stop-color:#ed1e79"
         offset="0"
         id="stop362" />
      <stop
         style="stop-opacity:1;stop-color:#f7931e"
         offset="1"
         id="stop364" />
    </linearGradient>
    <linearGradient
       x1="0"
       y1="0"
       x2="1"
       y2="0"
       gradientUnits="userSpaceOnUse"
       gradientTransform="matrix(0,-36.098629,-36.098629,0,1277.791,757)"
       spreadMethod="pad"
       id="linearGradient386">
      <stop
         style="stop-opacity:1;stop-color:#ed1e79"
         offset="0"
         id="stop382" />
      <stop
         style="stop-opacity:1;stop-color:#f7931e"
         offset="1"
         id="stop384" />
    </linearGradient>
    <linearGradient
       x1="0"
       y1="0"
       x2="1"
       y2="0"
       gradientUnits="userSpaceOnUse"
       gradientTransform="matrix(0,-36.098629,-36.098629,0,1322.5386,757)"
       spreadMethod="pad"
       id="linearGradient406">
      <stop
         style="stop-opacity:1;stop-color:#ed1e79"
         offset="0"
         id="stop402" />
      <stop
         style="stop-opacity:1;stop-color:#f7931e"
         offset="1"
         id="stop404" />
    </linearGradient>
    <linearGradient
       x1="0"
       y1="0"
       x2="1"
       y2="0"
       gradientUnits="userSpaceOnUse"
       gradientTransform="matrix(0,-36.098629,-36.098629,0,1367.2861,757)"
       spreadMethod="pad"
       id="linearGradient426">
      <stop
         style="stop-opacity:1;stop-color:#ed1e79"
         offset="0"
         id="stop422" />
      <stop
         style="stop-opacity:1;stop-color:#f7931e"
         offset="1"
         id="stop424" />
    </linearGradient>
    <linearGradient
       x1="0"
       y1="0"
       x2="1"
       y2="0"
       gradientUnits="userSpaceOnUse"
       gradientTransform="matrix(0,-36.098629,-36.098629,0,1412.0337,757)"
       spreadMethod="pad"
       id="linearGradient446">
      <stop
         style="stop-opacity:1;stop-color:#ed1e79"
         offset="0"
         id="stop442" />
      <stop
         style="stop-opacity:1;stop-color:#f7931e"
         offset="1"
         id="stop444" />
    </linearGradient>
    <linearGradient
       x1="0"
       y1="0"
       x2="1"
       y2="0"
       gradientUnits="userSpaceOnUse"
       gradientTransform="matrix(0,-36.098629,-36.098629,0,1476.1487,757)"
       spreadMethod="pad"
       id="linearGradient466">
      <stop
         style="stop-opacity:1;stop-color:#ed1e79"
         offset="0"
         id="stop462" />
      <stop
         style="stop-opacity:1;stop-color:#f7931e"
         offset="1"
         id="stop464" />
    </linearGradient>
    <linearGradient
       x1="0"
       y1="0"
       x2="1"
       y2="0"
       gradientUnits="userSpaceOnUse"
       gradientTransform="matrix(0,-36.098629,-36.098629,0,1540.2632,757)"
       spreadMethod="pad"
       id="linearGradient486">
      <stop
         style="stop-opacity:1;stop-color:#ed1e79"
         offset="0"
         id="stop482" />
      <stop
         style="stop-opacity:1;stop-color:#f7931e"
         offset="1"
         id="stop484" />
    </linearGradient>
    <linearGradient
       inkscape:collect="always"
       xlink:href="#linearGradient26"
       id="linearGradient1323"
       gradientUnits="userSpaceOnUse"
       gradientTransform="matrix(0,-435.70334,-435.70334,0,1005.5189,1268.7789)"
       x1="0"
       y1="0"
       x2="1"
       y2="0"
       spreadMethod="pad" />
    <linearGradient
       inkscape:collect="always"
       xlink:href="#linearGradient46"
       id="linearGradient1325"
       gradientUnits="userSpaceOnUse"
       gradientTransform="matrix(0,-435.69766,-435.69766,0,962.492,1268.7769)"
       x1="0"
       y1="0"
       x2="1"
       y2="0"
       spreadMethod="pad" />
    <linearGradient
       inkscape:collect="always"
       xlink:href="#linearGradient66"
       id="linearGradient1327"
       gradientUnits="userSpaceOnUse"
       gradientTransform="matrix(0,-435.70334,-435.70334,0,1112.9375,1268.7789)"
       x1="0"
       y1="0"
       x2="1"
       y2="0"
       spreadMethod="pad" />
    <linearGradient
       inkscape:collect="always"
       xlink:href="#linearGradient26"
       id="linearGradient1386"
       gradientUnits="userSpaceOnUse"
       gradientTransform="matrix(0,-435.70334,-435.70334,0,1005.5189,1268.7789)"
       x1="0"
       y1="0"
       x2="1"
       y2="0"
       spreadMethod="pad" />
    <linearGradient
       inkscape:collect="always"
       xlink:href="#linearGradient46"
       id="linearGradient1388"
       gradientUnits="userSpaceOnUse"
       gradientTransform="matrix(0,-435.69766,-435.69766,0,962.492,1268.7769)"
       x1="0"
       y1="0"
       x2="1"
       y2="0"
       spreadMethod="pad" />
    <linearGradient
       inkscape:collect="always"
       xlink:href="#linearGradient66"
       id="linearGradient1390"
       gradientUnits="userSpaceOnUse"
       gradientTransform="matrix(0,-435.70334,-435.70334,0,1112.9375,1268.7789)"
       x1="0"
       y1="0"
       x2="1"
       y2="0"
       spreadMethod="pad" />
    <linearGradient
       inkscape:collect="always"
       xlink:href="#linearGradient86"
       id="linearGradient1392"
       gradientUnits="userSpaceOnUse"
       gradientTransform="matrix(0,-36.098629,-36.098629,0,459.73682,757)"
       x1="0"
       y1="0"
       x2="1"
       y2="0"
       spreadMethod="pad" />
    <linearGradient
       inkscape:collect="always"
       xlink:href="#linearGradient106"
       id="linearGradient1394"
       gradientUnits="userSpaceOnUse"
       gradientTransform="matrix(0,-36.098629,-36.098629,0,504.48437,757)"
       x1="0"
       y1="0"
       x2="1"
       y2="0"
       spreadMethod="pad" />
    <linearGradient
       inkscape:collect="always"
       xlink:href="#linearGradient126"
       id="linearGradient1396"
       gradientUnits="userSpaceOnUse"
       gradientTransform="matrix(0,-36.098629,-36.098629,0,549.23193,757)"
       x1="0"
       y1="0"
       x2="1"
       y2="0"
       spreadMethod="pad" />
    <linearGradient
       inkscape:collect="always"
       xlink:href="#linearGradient146"
       id="linearGradient1398"
       gradientUnits="userSpaceOnUse"
       gradientTransform="matrix(0,-36.098629,-36.098629,0,611.32275,757)"
       x1="0"
       y1="0"
       x2="1"
       y2="0"
       spreadMethod="pad" />
    <linearGradient
       inkscape:collect="always"
       xlink:href="#linearGradient166"
       id="linearGradient1400"
       gradientUnits="userSpaceOnUse"
       gradientTransform="matrix(0,-36.098629,-36.098629,0,673.41309,757)"
       x1="0"
       y1="0"
       x2="1"
       y2="0"
       spreadMethod="pad" />
    <linearGradient
       inkscape:collect="always"
       xlink:href="#linearGradient186"
       id="linearGradient1402"
       gradientUnits="userSpaceOnUse"
       gradientTransform="matrix(0,-36.098629,-36.098629,0,735.50391,757)"
       x1="0"
       y1="0"
       x2="1"
       y2="0"
       spreadMethod="pad" />
    <linearGradient
       inkscape:collect="always"
       xlink:href="#linearGradient206"
       id="linearGradient1404"
       gradientUnits="userSpaceOnUse"
       gradientTransform="matrix(0,-36.098629,-36.098629,0,799.6189,757)"
       x1="0"
       y1="0"
       x2="1"
       y2="0"
       spreadMethod="pad" />
    <linearGradient
       inkscape:collect="always"
       xlink:href="#linearGradient226"
       id="linearGradient1406"
       gradientUnits="userSpaceOnUse"
       gradientTransform="matrix(0,-36.098629,-36.098629,0,863.7334,757)"
       x1="0"
       y1="0"
       x2="1"
       y2="0"
       spreadMethod="pad" />
    <linearGradient
       inkscape:collect="always"
       xlink:href="#linearGradient246"
       id="linearGradient1408"
       gradientUnits="userSpaceOnUse"
       gradientTransform="matrix(0,-36.098629,-36.098629,0,908.48096,757)"
       x1="0"
       y1="0"
       x2="1"
       y2="0"
       spreadMethod="pad" />
    <linearGradient
       inkscape:collect="always"
       xlink:href="#linearGradient266"
       id="linearGradient1410"
       gradientUnits="userSpaceOnUse"
       gradientTransform="matrix(0,-36.098629,-36.098629,0,953.22852,757)"
       x1="0"
       y1="0"
       x2="1"
       y2="0"
       spreadMethod="pad" />
    <linearGradient
       inkscape:collect="always"
       xlink:href="#linearGradient286"
       id="linearGradient1412"
       gradientUnits="userSpaceOnUse"
       gradientTransform="matrix(0,-36.098629,-36.098629,0,1017.3435,757)"
       x1="0"
       y1="0"
       x2="1"
       y2="0"
       spreadMethod="pad" />
    <linearGradient
       inkscape:collect="always"
       xlink:href="#linearGradient306"
       id="linearGradient1414"
       gradientUnits="userSpaceOnUse"
       gradientTransform="matrix(0,-36.098629,-36.098629,0,1081.458,757)"
       x1="0"
       y1="0"
       x2="1"
       y2="0"
       spreadMethod="pad" />
    <linearGradient
       inkscape:collect="always"
       xlink:href="#linearGradient326"
       id="linearGradient1416"
       gradientUnits="userSpaceOnUse"
       gradientTransform="matrix(0,-36.098629,-36.098629,0,1143.5488,757)"
       x1="0"
       y1="0"
       x2="1"
       y2="0"
       spreadMethod="pad" />
    <linearGradient
       inkscape:collect="always"
       xlink:href="#linearGradient346"
       id="linearGradient1418"
       gradientUnits="userSpaceOnUse"
       gradientTransform="matrix(0,-36.098629,-36.098629,0,1188.2964,757)"
       x1="0"
       y1="0"
       x2="1"
       y2="0"
       spreadMethod="pad" />
    <linearGradient
       inkscape:collect="always"
       xlink:href="#linearGradient366"
       id="linearGradient1420"
       gradientUnits="userSpaceOnUse"
       gradientTransform="matrix(0,-36.098629,-36.098629,0,1233.0439,757)"
       x1="0"
       y1="0"
       x2="1"
       y2="0"
       spreadMethod="pad" />
    <linearGradient
       inkscape:collect="always"
       xlink:href="#linearGradient386"
       id="linearGradient1422"
       gradientUnits="userSpaceOnUse"
       gradientTransform="matrix(0,-36.098629,-36.098629,0,1277.791,757)"
       x1="0"
       y1="0"
       x2="1"
       y2="0"
       spreadMethod="pad" />
    <linearGradient
       inkscape:collect="always"
       xlink:href="#linearGradient406"
       id="linearGradient1424"
       gradientUnits="userSpaceOnUse"
       gradientTransform="matrix(0,-36.098629,-36.098629,0,1322.5386,757)"
       x1="0"
       y1="0"
       x2="1"
       y2="0"
       spreadMethod="pad" />
    <linearGradient
       inkscape:collect="always"
       xlink:href="#linearGradient426"
       id="linearGradient1426"
       gradientUnits="userSpaceOnUse"
       gradientTransform="matrix(0,-36.098629,-36.098629,0,1367.2861,757)"
       x1="0"
       y1="0"
       x2="1"
       y2="0"
       spreadMethod="pad" />
    <linearGradient
       inkscape:collect="always"
       xlink:href="#linearGradient446"
       id="linearGradient1428"
       gradientUnits="userSpaceOnUse"
       gradientTransform="matrix(0,-36.098629,-36.098629,0,1412.0337,757)"
       x1="0"
       y1="0"
       x2="1"
       y2="0"
       spreadMethod="pad" />
    <linearGradient
       inkscape:collect="always"
       xlink:href="#linearGradient466"
       id="linearGradient1430"
       gradientUnits="userSpaceOnUse"
       gradientTransform="matrix(0,-36.098629,-36.098629,0,1476.1487,757)"
       x1="0"
       y1="0"
       x2="1"
       y2="0"
       spreadMethod="pad" />
    <linearGradient
       inkscape:collect="always"
       xlink:href="#linearGradient486"
       id="linearGradient1432"
       gradientUnits="userSpaceOnUse"
       gradientTransform="matrix(0,-36.098629,-36.098629,0,1540.2632,757)"
       x1="0"
       y1="0"
       x2="1"
       y2="0"
       spreadMethod="pad" />
    <linearGradient
       inkscape:collect="always"
       xlink:href="#linearGradient86"
       id="linearGradient1678"
       gradientUnits="userSpaceOnUse"
       gradientTransform="matrix(0,-36.098629,-36.098629,0,459.73682,757)"
       x1="0"
       y1="0"
       x2="1"
       y2="0"
       spreadMethod="pad" />
    <linearGradient
       inkscape:collect="always"
       xlink:href="#linearGradient106"
       id="linearGradient1680"
       gradientUnits="userSpaceOnUse"
       gradientTransform="matrix(0,-36.098629,-36.098629,0,504.48437,757)"
       x1="0"
       y1="0"
       x2="1"
       y2="0"
       spreadMethod="pad" />
    <linearGradient
       inkscape:collect="always"
       xlink:href="#linearGradient126"
       id="linearGradient1682"
       gradientUnits="userSpaceOnUse"
       gradientTransform="matrix(0,-36.098629,-36.098629,0,549.23193,757)"
       x1="0"
       y1="0"
       x2="1"
       y2="0"
       spreadMethod="pad" />
    <linearGradient
       inkscape:collect="always"
       xlink:href="#linearGradient146"
       id="linearGradient1684"
       gradientUnits="userSpaceOnUse"
       gradientTransform="matrix(0,-36.098629,-36.098629,0,611.32275,757)"
       x1="0"
       y1="0"
       x2="1"
       y2="0"
       spreadMethod="pad" />
    <linearGradient
       inkscape:collect="always"
       xlink:href="#linearGradient166"
       id="linearGradient1686"
       gradientUnits="userSpaceOnUse"
       gradientTransform="matrix(0,-36.098629,-36.098629,0,673.41309,757)"
       x1="0"
       y1="0"
       x2="1"
       y2="0"
       spreadMethod="pad" />
    <linearGradient
       inkscape:collect="always"
       xlink:href="#linearGradient186"
       id="linearGradient1688"
       gradientUnits="userSpaceOnUse"
       gradientTransform="matrix(0,-36.098629,-36.098629,0,735.50391,757)"
       x1="0"
       y1="0"
       x2="1"
       y2="0"
       spreadMethod="pad" />
    <linearGradient
       inkscape:collect="always"
       xlink:href="#linearGradient206"
       id="linearGradient1690"
       gradientUnits="userSpaceOnUse"
       gradientTransform="matrix(0,-36.098629,-36.098629,0,799.6189,757)"
       x1="0"
       y1="0"
       x2="1"
       y2="0"
       spreadMethod="pad" />
    <linearGradient
       inkscape:collect="always"
       xlink:href="#linearGradient226"
       id="linearGradient1692"
       gradientUnits="userSpaceOnUse"
       gradientTransform="matrix(0,-36.098629,-36.098629,0,863.7334,757)"
       x1="0"
       y1="0"
       x2="1"
       y2="0"
       spreadMethod="pad" />
    <linearGradient
       inkscape:collect="always"
       xlink:href="#linearGradient246"
       id="linearGradient1694"
       gradientUnits="userSpaceOnUse"
       gradientTransform="matrix(0,-36.098629,-36.098629,0,908.48096,757)"
       x1="0"
       y1="0"
       x2="1"
       y2="0"
       spreadMethod="pad" />
    <linearGradient
       inkscape:collect="always"
       xlink:href="#linearGradient266"
       id="linearGradient1696"
       gradientUnits="userSpaceOnUse"
       gradientTransform="matrix(0,-36.098629,-36.098629,0,953.22852,757)"
       x1="0"
       y1="0"
       x2="1"
       y2="0"
       spreadMethod="pad" />
    <linearGradient
       inkscape:collect="always"
       xlink:href="#linearGradient286"
       id="linearGradient1698"
       gradientUnits="userSpaceOnUse"
       gradientTransform="matrix(0,-36.098629,-36.098629,0,1017.3435,757)"
       x1="0"
       y1="0"
       x2="1"
       y2="0"
       spreadMethod="pad" />
    <linearGradient
       inkscape:collect="always"
       xlink:href="#linearGradient306"
       id="linearGradient1700"
       gradientUnits="userSpaceOnUse"
       gradientTransform="matrix(0,-36.098629,-36.098629,0,1081.458,757)"
       x1="0"
       y1="0"
       x2="1"
       y2="0"
       spreadMethod="pad" />
    <linearGradient
       inkscape:collect="always"
       xlink:href="#linearGradient326"
       id="linearGradient1702"
       gradientUnits="userSpaceOnUse"
       gradientTransform="matrix(0,-36.098629,-36.098629,0,1143.5488,757)"
       x1="0"
       y1="0"
       x2="1"
       y2="0"
       spreadMethod="pad" />
    <linearGradient
       inkscape:collect="always"
       xlink:href="#linearGradient346"
       id="linearGradient1704"
       gradientUnits="userSpaceOnUse"
       gradientTransform="matrix(0,-36.098629,-36.098629,0,1188.2964,757)"
       x1="0"
       y1="0"
       x2="1"
       y2="0"
       spreadMethod="pad" />
    <linearGradient
       inkscape:collect="always"
       xlink:href="#linearGradient366"
       id="linearGradient1706"
       gradientUnits="userSpaceOnUse"
       gradientTransform="matrix(0,-36.098629,-36.098629,0,1233.0439,757)"
       x1="0"
       y1="0"
       x2="1"
       y2="0"
       spreadMethod="pad" />
    <linearGradient
       inkscape:collect="always"
       xlink:href="#linearGradient386"
       id="linearGradient1708"
       gradientUnits="userSpaceOnUse"
       gradientTransform="matrix(0,-36.098629,-36.098629,0,1277.791,757)"
       x1="0"
       y1="0"
       x2="1"
       y2="0"
       spreadMethod="pad" />
    <linearGradient
       inkscape:collect="always"
       xlink:href="#linearGradient406"
       id="linearGradient1710"
       gradientUnits="userSpaceOnUse"
       gradientTransform="matrix(0,-36.098629,-36.098629,0,1322.5386,757)"
       x1="0"
       y1="0"
       x2="1"
       y2="0"
       spreadMethod="pad" />
    <linearGradient
       inkscape:collect="always"
       xlink:href="#linearGradient426"
       id="linearGradient1712"
       gradientUnits="userSpaceOnUse"
       gradientTransform="matrix(0,-36.098629,-36.098629,0,1367.2861,757)"
       x1="0"
       y1="0"
       x2="1"
       y2="0"
       spreadMethod="pad" />
    <linearGradient
       inkscape:collect="always"
       xlink:href="#linearGradient446"
       id="linearGradient1714"
       gradientUnits="userSpaceOnUse"
       gradientTransform="matrix(0,-36.098629,-36.098629,0,1412.0337,757)"
       x1="0"
       y1="0"
       x2="1"
       y2="0"
       spreadMethod="pad" />
    <linearGradient
       inkscape:collect="always"
       xlink:href="#linearGradient466"
       id="linearGradient1716"
       gradientUnits="userSpaceOnUse"
       gradientTransform="matrix(0,-36.098629,-36.098629,0,1476.1487,757)"
       x1="0"
       y1="0"
       x2="1"
       y2="0"
       spreadMethod="pad" />
    <linearGradient
       inkscape:collect="always"
       xlink:href="#linearGradient486"
       id="linearGradient1718"
       gradientUnits="userSpaceOnUse"
       gradientTransform="matrix(0,-36.098629,-36.098629,0,1540.2632,757)"
       x1="0"
       y1="0"
       x2="1"
       y2="0"
       spreadMethod="pad" />
  </defs>
  <sodipodi:namedview
     pagecolor="#ffffff"
     bordercolor="#666666"
     borderopacity="1"
     objecttolerance="10"
     gridtolerance="10"
     guidetolerance="10"
     inkscape:pageopacity="0"
     inkscape:pageshadow="2"
     inkscape:window-width="1920"
     inkscape:window-height="1013"
     id="namedview5671"
     showgrid="false"
     inkscape:zoom="0.82279687"
     inkscape:cx="188.38185"
     inkscape:cy="539.01518"
     inkscape:window-x="1366"
     inkscape:window-y="40"
     inkscape:window-maximized="1"
     inkscape:current-layer="svg5669"
     showguides="false"
     units="mm"
     inkscape:pagecheckerboard="0"
     inkscape:document-units="mm">
    <inkscape:grid
       type="xygrid"
       id="grid60" />
  </sodipodi:namedview>
  <text
     xml:space="preserve"
     style="font-style:normal;font-weight:normal;font-size:26.6667px;line-height:1.25;font-family:sans-serif;letter-spacing:0px;word-spacing:0px;fill:#666666;fill-opacity:1;stroke:none"
     x="288.95978"
     y="53.434334"
     id="text36"><tspan
       sodipodi:role="line"
       id="tspan34"
       x="288.95978"
       y="53.434334">LOGO PRIMÁRIA</tspan></text>
  <path
     style="fill:none;stroke:#666666;stroke-width:1px;stroke-linecap:butt;stroke-linejoin:miter;stroke-opacity:1"
     d="M 31.178206,318.12678 H 762.52258"
     id="path100"
     inkscape:connector-curvature="0" />
  <text
     xml:space="preserve"
     style="font-style:normal;font-weight:normal;font-size:26.6667px;line-height:1.25;font-family:sans-serif;letter-spacing:0px;word-spacing:0px;fill:#666666;fill-opacity:1;stroke:none"
     x="237.43633"
     y="365.36697"
     id="text36-3"><tspan
       sodipodi:role="line"
       id="tspan34-6"
       x="237.43633"
       y="365.36697">VARIAÇÃO HORIZONTAL</tspan></text>
  <path
     style="fill:none;stroke:#666666;stroke-width:1px;stroke-linecap:butt;stroke-linejoin:miter;stroke-opacity:1"
     d="m 34.80546,561.25984 h 731.3444"
     id="path100-3"
     inkscape:connector-curvature="0" />
  <text
     xml:space="preserve"
     style="font-style:normal;font-weight:normal;font-size:26.6667px;line-height:1.25;font-family:sans-serif;letter-spacing:0px;word-spacing:0px;fill:#666666;fill-opacity:1;stroke:none"
     x="274.76706"
     y="604.96686"
     id="text36-3-6"><tspan
       sodipodi:role="line"
       id="tspan34-6-7"
       x="274.76706"
       y="604.96686">PALETA DE CORES</tspan></text>
  <circle
     r="57.579403"
     cy="697.25983"
     cx="206.06482"
     id="path151"
     style="fill:#f7931e;fill-opacity:1;stroke:#666666;stroke-opacity:1" />
  <circle
     style="fill:#f15052;fill-opacity:1;stroke:#666666;stroke-opacity:1"
     id="circle153"
     cx="396.85037"
     cy="697.25983"
     r="57.579403" />
  <ellipse
     cy="697.25983"
     cx="587.63599"
     id="circle155"
     style="fill:#ed1e79;fill-opacity:1;stroke:#666666;stroke-opacity:1"
     rx="57.581104"
     ry="57.579403" />
  <path
     style="fill:none;stroke:#666666;stroke-width:1px;stroke-linecap:butt;stroke-linejoin:miter;stroke-opacity:1"
     d="M 31.178193,786.49659 H 762.52259"
     id="path100-3-5"
     inkscape:connector-curvature="0" />
  <text
     xml:space="preserve"
     style="font-style:normal;font-weight:normal;font-size:26.6667px;line-height:1.25;font-family:sans-serif;letter-spacing:0px;word-spacing:0px;fill:#666666;fill-opacity:1;stroke:none"
     x="545.29877"
     y="827.0014"
     id="text36-3-6-3"><tspan
       sodipodi:role="line"
       id="tspan34-6-7-5"
       x="545.29877"
       y="827.0014">ÍCONE</tspan></text>
  <text
     xml:space="preserve"
     style="font-style:normal;font-weight:normal;font-size:26.6667px;line-height:1.25;font-family:sans-serif;letter-spacing:0px;word-spacing:0px;fill:#666666;fill-opacity:1;stroke:none"
     x="152.32784"
     y="827.0014"
     id="text36-3-6-6"><tspan
       sodipodi:role="line"
       id="tspan34-6-7-2"
       x="152.32784"
       y="827.0014">FONTES</tspan></text>
  <text
     xml:space="preserve"
     style="font-style:normal;font-weight:normal;font-size:40px;line-height:1.25;font-family:sans-serif;letter-spacing:0px;word-spacing:0px;fill:#f15052;fill-opacity:1;stroke:none"
     x="208.03137"
     y="931.09943"
     id="text99"><tspan
       sodipodi:role="line"
       x="208.03137"
       y="931.09943"
       id="tspan101"
       style="font-style:normal;font-variant:normal;font-weight:bold;font-stretch:normal;font-size:46.6667px;font-family:VVDS_Praliner;-inkscape-font-specification:'VVDS_Praliner Bold';text-align:center;text-anchor:middle;fill:#f15052;fill-opacity:1">N/A</tspan></text>
  <g
     id="g263"
     transform="matrix(0.41644169,0,0,0.41644169,315.92553,581.56236)"
     inkscape:export-filename="/mnt/aux_drive_linux_nvme/Workspace/SINGULARIDADE.DIGITAL/PUBLICIDADE E PROPAGANDA/IDENTIDADE VISUAL/v1/exports/identidade_visual_singularidade_digital_v1_icone_1200dpi.png"
     inkscape:export-xdpi="1199.9576"
     inkscape:export-ydpi="1199.9576">
    <g
       id="g10"
       transform="matrix(1.3333333,0,0,-1.3333333,-694.05037,2343.7487)">
      <g
         id="g12">
        <g
           id="g18">
          <g
             id="g20">
            <path
               d="m 947.57,854.395 48.159,-30.401 4.076,-2.571 0.195,-0.121 0.024,0.024 63.444,40.056 -52.429,33.093 z"
               style="fill:url(#linearGradient26);stroke:none"
               id="path28" />
          </g>
        </g>
      </g>
    </g>
    <g
       id="g30"
       transform="matrix(1.3333333,0,0,-1.3333333,-694.05037,2343.7487)">
      <g
         id="g32">
        <g
           id="g38">
          <g
             id="g40">
            <path
               d="m 999.998,1275.988 -37.851,-23.905 -25.617,-16.167 -87.713,-55.371 -0.04,0.027 -63.468,-40.086 0.026,-0.02 -0.026,-0.013 63.468,-40.073 0.026,0.021 81.858,-51.67 v -6.766 l 0.02,-96.754 -77.595,48.986 -0.013,46.751 v 1.432 l -0.221,0.167 -67.543,42.656 v -86.931 l 0.006,-41.41 -0.006,-0.007 0.006,-0.006 67.778,-42.796 77.615,-49.006 5.481,-3.467 62.256,39.303 v 105.072 l -0.007,29.292 -0.013,49.394 v 1.479 l -0.221,0.14 -5.287,3.326 -51.555,32.551 -10.701,6.759 v -0.01 l -18.369,11.59 87.706,55.371 76.183,-48.083 16.837,10.628 46.657,29.431 -139.677,88.162 z"
               style="fill:url(#linearGradient46);stroke:none"
               id="path48" />
          </g>
        </g>
      </g>
    </g>
    <g
       id="g50"
       transform="matrix(1.3333333,0,0,-1.3333333,-694.05037,2343.7487)">
      <g
         id="g52">
        <g
           id="g58">
          <g
             id="g60">
            <path
               d="m 1214.667,1113.073 v 27.343 l 0.024,0.024 -0.024,0.024 -51.726,32.657 -11.913,7.521 -4.124,-2.597 -47.407,-29.914 -11.962,-7.546 -23.63,-14.92 -39.086,-24.675 -13.635,-8.588 v -79.578 -0.583 -103.455 l 67.763,42.604 -0.024,103.628 13.635,8.609 54.37,34.331 V 980.289 l -124.523,-78.636 52.417,-33.09 72.106,45.613 67.763,42.773 v 80.112 l -0.01,-0.01 z"
               style="fill:url(#linearGradient66);stroke:none"
               id="path68" />
          </g>
        </g>
      </g>
    </g>
  </g>
  <g
     id="g2070"
     inkscape:export-filename="/mnt/aux_drive_linux_nvme/Workspace/SINGULARIDADE.DIGITAL/PUBLICIDADE E PROPAGANDA/IDENTIDADE VISUAL/v1/exports/identidade_visual_singularidade_digital_v1_logo_primaria_variacao_horizontal_1200dpi.png"
     inkscape:export-xdpi="1199.9576"
     inkscape:export-ydpi="1199.9576">
    <g
       id="g263-9"
       transform="matrix(0.24612353,0,0,0.24612353,-64.206681,226.5332)">
      <g
         id="g10-1"
         transform="matrix(1.3333333,0,0,-1.3333333,-694.05037,2343.7487)">
        <g
           id="g12-2">
          <g
             id="g18-7">
            <g
               id="g20-0">
              <path
                 d="m 947.57,854.395 48.159,-30.401 4.076,-2.571 0.195,-0.121 0.024,0.024 63.444,40.056 -52.429,33.093 z"
                 style="fill:url(#linearGradient1323);stroke:none"
                 id="path28-9" />
            </g>
          </g>
        </g>
      </g>
      <g
         id="g30-3"
         transform="matrix(1.3333333,0,0,-1.3333333,-694.05037,2343.7487)">
        <g
           id="g32-6">
          <g
             id="g38-0">
            <g
               id="g40-6">
              <path
                 d="m 999.998,1275.988 -37.851,-23.905 -25.617,-16.167 -87.713,-55.371 -0.04,0.027 -63.468,-40.086 0.026,-0.02 -0.026,-0.013 63.468,-40.073 0.026,0.021 81.858,-51.67 v -6.766 l 0.02,-96.754 -77.595,48.986 -0.013,46.751 v 1.432 l -0.221,0.167 -67.543,42.656 v -86.931 l 0.006,-41.41 -0.006,-0.007 0.006,-0.006 67.778,-42.796 77.615,-49.006 5.481,-3.467 62.256,39.303 v 105.072 l -0.007,29.292 -0.013,49.394 v 1.479 l -0.221,0.14 -5.287,3.326 -51.555,32.551 -10.701,6.759 v -0.01 l -18.369,11.59 87.706,55.371 76.183,-48.083 16.837,10.628 46.657,29.431 -139.677,88.162 z"
                 style="fill:url(#linearGradient1325);stroke:none"
                 id="path48-2" />
            </g>
          </g>
        </g>
      </g>
      <g
         id="g50-6"
         transform="matrix(1.3333333,0,0,-1.3333333,-694.05037,2343.7487)">
        <g
           id="g52-1">
          <g
             id="g58-8">
            <g
               id="g60-7">
              <path
                 d="m 1214.667,1113.073 v 27.343 l 0.024,0.024 -0.024,0.024 -51.726,32.657 -11.913,7.521 -4.124,-2.597 -47.407,-29.914 -11.962,-7.546 -23.63,-14.92 -39.086,-24.675 -13.635,-8.588 v -79.578 -0.583 -103.455 l 67.763,42.604 -0.024,103.628 13.635,8.609 54.37,34.331 V 980.289 l -124.523,-78.636 52.417,-33.09 72.106,45.613 67.763,42.773 v 80.112 l -0.01,-0.01 z"
                 style="fill:url(#linearGradient1327);stroke:none"
                 id="path68-9" />
            </g>
          </g>
        </g>
      </g>
    </g>
    <g
       id="g1946">
      <g
         id="g70"
         transform="matrix(0.78802074,0,0,-0.78802074,-169.52796,1025.9154)">
        <g
           id="g72">
          <g
             id="g78">
            <g
               id="g80">
              <path
                 d="m 447.377,756.92 c -1.594,-0.104 -3.342,-0.594 -5.244,-1.473 v 0 c -3.333,-1.963 -4.999,-4.447 -4.999,-7.452 v 0 -2.27 c 0,-1.656 0.562,-3.231 1.687,-4.724 v 0 c 2.372,-2.739 5.316,-4.108 8.833,-4.108 v 0 h 21.345 c 0.47,0 0.868,-0.073 1.196,-0.215 v 0 c 1.063,-0.512 1.595,-1.277 1.595,-2.301 v 0 c 0,-0.082 -0.041,-0.368 -0.123,-0.857 v 0 c -0.491,-1.147 -1.38,-1.719 -2.668,-1.719 v 0 h -31.711 c -0.082,0 -0.134,-0.042 -0.154,-0.122 v 0 -7.513 c 0,-0.103 0.051,-0.155 0.154,-0.155 v 0 h 34.655 c 1.635,0 3.23,0.349 4.784,1.043 v 0 c 3.742,1.983 5.613,4.58 5.613,7.79 v 0 2.27 c 0,1.88 -0.716,3.65 -2.147,5.306 v 0 c -2.352,2.412 -5.051,3.619 -8.097,3.619 v 0 h -21.651 c -0.451,0 -0.839,0.07 -1.166,0.215 v 0 c -1.084,0.509 -1.625,1.267 -1.625,2.269 v 0 c 0,1.492 0.889,2.35 2.668,2.577 v 0 h 31.865 c 0.101,0 0.153,0.05 0.153,0.152 v 0 7.514 c 0,0.082 -0.052,0.132 -0.153,0.154 v 0 z"
                 style="fill:url(#linearGradient1678);stroke:none"
                 id="path88" />
            </g>
          </g>
        </g>
      </g>
      <g
         id="g90"
         transform="matrix(0.78802074,0,0,-0.78802074,-169.52796,1025.9154)">
        <g
           id="g92">
          <g
             id="g98">
            <g
               id="g100">
              <path
                 d="m 499.379,756.92 c -0.082,0 -0.134,-0.052 -0.154,-0.154 v 0 -32.6 c 0,-0.103 0.051,-0.155 0.154,-0.155 v 0 h 10.212 c 0.102,0 0.153,0.052 0.153,0.155 v 0 32.6 c 0,0.082 -0.051,0.132 -0.153,0.154 v 0 z"
                 style="fill:url(#linearGradient1680);stroke:none"
                 id="path108" />
            </g>
          </g>
        </g>
      </g>
      <g
         id="g110"
         transform="matrix(0.78802074,0,0,-0.78802074,-169.52796,1025.9154)">
        <g
           id="g112">
          <g
             id="g118">
            <g
               id="g120">
              <path
                 d="m 526.783,756.92 c -0.082,0 -0.134,-0.052 -0.154,-0.154 v 0 -32.6 c 0,-0.103 0.051,-0.155 0.154,-0.155 v 0 h 10.212 c 0.102,0 0.154,0.052 0.154,0.155 v 0 24.934 h 18.769 c 0.491,0 1.033,-0.072 1.626,-0.215 v 0 c 2.494,-0.882 3.741,-2.772 3.741,-5.674 v 0 -19.045 c 0,-0.103 0.05,-0.155 0.153,-0.155 v 0 h 10.244 c 0.102,0 0.153,0.052 0.153,0.155 v 0 23.92 c 0,1.574 -0.573,3.17 -1.717,4.785 v 0 c -2.536,2.7 -5.358,4.049 -8.465,4.049 v 0 z"
                 style="fill:url(#linearGradient1682);stroke:none"
                 id="path128" />
            </g>
          </g>
        </g>
      </g>
      <g
         id="g130"
         transform="matrix(0.78802074,0,0,-0.78802074,-169.52796,1025.9154)">
        <g
           id="g132">
          <g
             id="g138">
            <g
               id="g140">
              <path
                 d="m 598.964,756.92 c -1.33,0 -2.833,-0.348 -4.509,-1.043 v 0 c -3.824,-1.922 -5.735,-4.551 -5.735,-7.882 v 0 -14.997 c 0,-1.902 0.715,-3.691 2.147,-5.367 v 0 c 2.351,-2.412 5.121,-3.62 8.312,-3.62 v 0 h 34.594 c 0.102,0 0.153,0.052 0.153,0.155 v 0 13.677 c 0,0.083 -0.051,0.134 -0.153,0.153 v 0 h -10.244 c -0.082,0 -0.133,-0.051 -0.154,-0.153 v 0 -6.042 h -18.768 c -0.676,0 -1.258,0.103 -1.748,0.307 v 0 c -2.414,0.982 -3.62,2.679 -3.62,5.091 v 0 6.748 c 0,0.244 0.051,0.643 0.154,1.195 v 0 c 0.981,2.637 2.719,3.958 5.214,3.958 v 0 h 29.166 c 0.102,0 0.153,0.05 0.153,0.152 v 0 7.514 c 0,0.082 -0.051,0.132 -0.153,0.154 v 0 z"
                 style="fill:url(#linearGradient1684);stroke:none"
                 id="path148" />
            </g>
          </g>
        </g>
      </g>
      <g
         id="g150"
         transform="matrix(0.78802074,0,0,-0.78802074,-169.52796,1025.9154)">
        <g
           id="g152">
          <g
             id="g158">
            <g
               id="g160">
              <path
                 d="m 685.619,756.92 c -0.082,0 -0.133,-0.052 -0.153,-0.154 v 0 -24.965 h -18.769 c -0.491,0 -1.023,0.082 -1.595,0.246 v 0 c -2.515,0.879 -3.772,2.76 -3.772,5.643 v 0 19.076 c 0,0.082 -0.051,0.132 -0.154,0.154 v 0 h -10.212 c -0.082,0 -0.133,-0.052 -0.154,-0.154 v 0 -23.86 c 0,-1.82 0.665,-3.537 1.993,-5.153 v 0 c 2.352,-2.495 5.02,-3.742 8.005,-3.742 v 0 h 35.055 c 0.102,0 0.153,0.052 0.153,0.155 v 0 32.6 c 0,0.082 -0.051,0.132 -0.153,0.154 v 0 z"
                 style="fill:url(#linearGradient1686);stroke:none"
                 id="path168" />
            </g>
          </g>
        </g>
      </g>
      <g
         id="g170"
         transform="matrix(0.78802074,0,0,-0.78802074,-169.52796,1025.9154)">
        <g
           id="g172">
          <g
             id="g178">
            <g
               id="g180">
              <path
                 d="m 713.055,756.92 c -0.082,0 -0.133,-0.052 -0.154,-0.154 v 0 -32.6 c 0,-0.103 0.051,-0.155 0.154,-0.155 v 0 h 44.899 c 0.102,0 0.153,0.052 0.153,0.155 v 0 7.513 c 0,0.08 -0.051,0.122 -0.153,0.122 v 0 H 723.42 v 24.965 c 0,0.082 -0.051,0.132 -0.153,0.154 v 0 z"
                 style="fill:url(#linearGradient1688);stroke:none"
                 id="path188" />
            </g>
          </g>
        </g>
      </g>
      <g
         id="g190"
         transform="matrix(0.78802074,0,0,-0.78802074,-169.52796,1025.9154)">
        <g
           id="g192">
          <g
             id="g198">
            <g
               id="g200">
              <path
                 d="m 794.344,756.92 c -0.47,-0.717 -6.921,-11.635 -19.352,-32.754 v 0 -0.155 h 12.144 c 0.225,0.307 4.375,7.321 12.453,21.04 v 0 c 0.04,0 0.5,-0.737 1.38,-2.209 v 0 c 7.176,-12.268 10.907,-18.544 11.194,-18.831 v 0 h 12.083 v 0.062 c -0.348,0.634 -4.673,7.993 -12.973,22.081 v 0 c -4.11,6.992 -6.267,10.58 -6.471,10.766 v 0 z"
                 style="fill:url(#linearGradient1690);stroke:none"
                 id="path208" />
            </g>
          </g>
        </g>
      </g>
      <g
         id="g210"
         transform="matrix(0.78802074,0,0,-0.78802074,-169.52796,1025.9154)">
        <g
           id="g212">
          <g
             id="g218">
            <g
               id="g220">
              <path
                 d="m 841.284,756.92 c -0.082,0 -0.133,-0.052 -0.154,-0.154 v 0 -32.6 c 0,-0.103 0.051,-0.155 0.154,-0.155 v 0 h 10.212 c 0.103,0 0.154,0.052 0.154,0.155 v 0 8.893 h 15.979 c 3.761,-5.684 5.796,-8.699 6.103,-9.048 v 0 h 12.451 l 0.153,0.062 -6.41,9.661 1.319,0.582 c 3.394,2.023 5.091,4.58 5.091,7.668 v 0 5.949 c 0,1.923 -0.715,3.712 -2.146,5.368 v 0 c -2.352,2.412 -5.102,3.619 -8.251,3.619 v 0 z m 10.366,-7.82 h 20.088 c 0.531,0 1.053,-0.072 1.564,-0.215 v 0 c 1.656,-0.655 2.484,-1.975 2.484,-3.958 v 0 c 0,-0.407 -0.041,-0.828 -0.122,-1.257 v 0 c -0.573,-1.859 -1.922,-2.791 -4.049,-2.791 v 0 H 851.65 Z"
                 style="fill:url(#linearGradient1692);stroke:none"
                 id="path228" />
            </g>
          </g>
        </g>
      </g>
      <g
         id="g230"
         transform="matrix(0.78802074,0,0,-0.78802074,-169.52796,1025.9154)">
        <g
           id="g232">
          <g
             id="g238">
            <g
               id="g240">
              <path
                 d="m 903.375,756.92 c -0.082,0 -0.133,-0.052 -0.154,-0.154 v 0 -32.6 c 0,-0.103 0.051,-0.155 0.154,-0.155 v 0 h 10.212 c 0.102,0 0.153,0.052 0.153,0.155 v 0 32.6 c 0,0.082 -0.051,0.132 -0.153,0.154 v 0 z"
                 style="fill:url(#linearGradient1694);stroke:none"
                 id="path248" />
            </g>
          </g>
        </g>
      </g>
      <g
         id="g250"
         transform="matrix(0.78802074,0,0,-0.78802074,-169.52796,1025.9154)">
        <g
           id="g252">
          <g
             id="g258">
            <g
               id="g260">
              <path
                 d="m 930.779,756.92 c -0.082,0 -0.133,-0.052 -0.154,-0.154 v 0 -32.6 c 0,-0.103 0.052,-0.155 0.154,-0.155 v 0 h 34.808 c 1.801,0 3.691,0.542 5.675,1.626 v 0 c 3.046,2.004 4.569,4.406 4.569,7.207 v 0 15.089 c 0,1.923 -0.715,3.712 -2.146,5.368 v 0 c -2.373,2.412 -5.122,3.619 -8.25,3.619 v 0 z m 10.366,-7.82 h 18.77 c 0.674,0 1.267,-0.094 1.778,-0.277 v 0 c 2.392,-0.982 3.588,-2.679 3.588,-5.091 v 0 -6.625 c 0,-0.511 -0.072,-1.023 -0.214,-1.533 v 0 c -1.002,-2.515 -2.689,-3.773 -5.06,-3.773 v 0 h -18.862 z"
                 style="fill:url(#linearGradient1696);stroke:none"
                 id="path268" />
            </g>
          </g>
        </g>
      </g>
      <g
         id="g270"
         transform="matrix(0.78802074,0,0,-0.78802074,-169.52796,1025.9154)">
        <g
           id="g272">
          <g
             id="g278">
            <g
               id="g280">
              <path
                 d="m 1012.068,756.92 c -0.47,-0.717 -6.921,-11.635 -19.352,-32.754 v 0 -0.155 h 12.146 c 0.224,0.307 4.375,7.321 12.451,21.04 v 0 c 0.041,0 0.501,-0.737 1.38,-2.209 v 0 c 7.177,-12.268 10.908,-18.544 11.194,-18.831 v 0 h 12.083 v 0.062 c -0.348,0.634 -4.671,7.993 -12.972,22.081 v 0 c -4.11,6.992 -6.268,10.58 -6.472,10.766 v 0 z"
                 style="fill:url(#linearGradient1698);stroke:none"
                 id="path288" />
            </g>
          </g>
        </g>
      </g>
      <g
         id="g290"
         transform="matrix(0.78802074,0,0,-0.78802074,-169.52796,1025.9154)">
        <g
           id="g292">
          <g
             id="g298">
            <g
               id="g300">
              <path
                 d="m 1059.008,756.92 c -0.081,0 -0.133,-0.052 -0.153,-0.154 v 0 -32.6 c 0,-0.103 0.051,-0.155 0.153,-0.155 v 0 h 34.81 c 1.799,0 3.69,0.542 5.673,1.626 v 0 c 3.047,2.004 4.57,4.406 4.57,7.207 v 0 15.089 c 0,1.923 -0.716,3.712 -2.147,5.368 v 0 c -2.372,2.412 -5.122,3.619 -8.25,3.619 v 0 z m 10.367,-7.82 h 18.769 c 0.674,0 1.267,-0.094 1.778,-0.277 v 0 c 2.393,-0.982 3.589,-2.679 3.589,-5.091 v 0 -6.625 c 0,-0.511 -0.072,-1.023 -0.214,-1.533 v 0 c -1.003,-2.515 -2.69,-3.773 -5.061,-3.773 v 0 h -18.861 z"
                 style="fill:url(#linearGradient1700);stroke:none"
                 id="path308" />
            </g>
          </g>
        </g>
      </g>
      <g
         id="g310"
         transform="matrix(0.78802074,0,0,-0.78802074,-169.52796,1025.9154)">
        <g
           id="g312">
          <g
             id="g318">
            <g
               id="g320">
              <path
                 d="m 1121.099,756.92 c -0.082,0 -0.133,-0.052 -0.154,-0.154 v 0 -7.514 c 0,-0.102 0.052,-0.152 0.154,-0.152 v 0 h 44.9 c 0.101,0 0.153,0.05 0.153,0.152 v 0 7.514 c 0,0.082 -0.052,0.132 -0.153,0.154 v 0 z m 0,-12.881 c -0.082,0 -0.133,-0.053 -0.154,-0.154 v 0 -6.838 c 0,-0.104 0.052,-0.154 0.154,-0.154 v 0 h 44.9 c 0.101,0 0.153,0.05 0.153,0.154 v 0 6.838 c 0,0.082 -0.052,0.132 -0.153,0.154 v 0 z m 0,-12.238 c -0.082,0 -0.133,-0.042 -0.154,-0.122 v 0 -7.513 c 0,-0.103 0.052,-0.155 0.154,-0.155 v 0 h 44.9 c 0.101,0 0.153,0.052 0.153,0.155 v 0 7.513 c 0,0.08 -0.052,0.122 -0.153,0.122 v 0 z"
                 style="fill:url(#linearGradient1702);stroke:none"
                 id="path328" />
            </g>
          </g>
        </g>
      </g>
      <g
         id="g330"
         transform="matrix(0.78802074,0,0,-0.78802074,-169.52796,1025.9154)">
        <g
           id="g332">
          <g
             id="g338">
            <g
               id="g340">
              <path
                 d="m 1183.19,731.801 c -0.081,0 -0.133,-0.042 -0.154,-0.122 v 0 -7.513 c 0,-0.103 0.052,-0.155 0.154,-0.155 v 0 h 10.213 c 0.102,0 0.153,0.052 0.153,0.155 v 0 7.513 c 0,0.08 -0.051,0.122 -0.153,0.122 v 0 z"
                 style="fill:url(#linearGradient1704);stroke:none"
                 id="path348" />
            </g>
          </g>
        </g>
      </g>
      <g
         id="g350"
         transform="matrix(0.78802074,0,0,-0.78802074,-778.75756,1059.1703)">
        <g
           id="g352">
          <g
             id="g358">
            <g
               id="g360">
              <path
                 d="m 1210.594,756.92 c -0.081,0 -0.133,-0.052 -0.153,-0.154 v 0 -32.6 c 0,-0.103 0.051,-0.155 0.153,-0.155 v 0 h 34.809 c 1.8,0 3.691,0.542 5.674,1.626 v 0 c 3.047,2.004 4.57,4.406 4.57,7.207 v 0 15.089 c 0,1.923 -0.716,3.712 -2.147,5.368 v 0 c -2.372,2.412 -5.122,3.619 -8.25,3.619 v 0 z m 10.367,-7.82 h 18.769 c 0.674,0 1.267,-0.094 1.779,-0.277 v 0 c 2.392,-0.982 3.588,-2.679 3.588,-5.091 v 0 -6.625 c 0,-0.511 -0.072,-1.023 -0.214,-1.533 v 0 c -1.003,-2.515 -2.69,-3.773 -5.061,-3.773 v 0 h -18.861 z"
                 style="fill:url(#linearGradient1706);stroke:none"
                 id="path368" />
            </g>
          </g>
        </g>
      </g>
      <g
         id="g370"
         transform="matrix(0.78802074,0,0,-0.78802074,-778.75756,1059.1703)">
        <g
           id="g372">
          <g
             id="g378">
            <g
               id="g380">
              <path
                 d="m 1272.685,756.92 c -0.082,0 -0.134,-0.052 -0.153,-0.154 v 0 -32.6 c 0,-0.103 0.051,-0.155 0.153,-0.155 v 0 h 10.213 c 0.102,0 0.153,0.052 0.153,0.155 v 0 32.6 c 0,0.082 -0.051,0.132 -0.153,0.154 v 0 z"
                 style="fill:url(#linearGradient1708);stroke:none"
                 id="path388" />
            </g>
          </g>
        </g>
      </g>
      <g
         id="g390"
         transform="matrix(0.78802074,0,0,-0.78802074,-778.75756,1059.1703)">
        <g
           id="g392">
          <g
             id="g398">
            <g
               id="g400-6">
              <path
                 d="m 1310.179,756.92 c -1.33,0 -2.832,-0.348 -4.509,-1.043 v 0 c -3.823,-1.922 -5.734,-4.551 -5.734,-7.882 v 0 -14.997 c 0,-1.902 0.715,-3.691 2.146,-5.367 v 0 c 2.352,-2.412 5.122,-3.62 8.312,-3.62 v 0 h 34.594 c 0.102,0 0.154,0.052 0.154,0.155 v 0 13.677 c 0,0.083 -0.052,0.134 -0.154,0.153 v 0 h -10.243 c -0.082,0 -0.134,-0.051 -0.154,-0.153 v 0 -6.042 h -18.768 c -0.676,0 -1.258,0.103 -1.749,0.307 v 0 c -2.413,0.982 -3.619,2.679 -3.619,5.091 v 0 6.748 c 0,0.244 0.051,0.643 0.154,1.195 v 0 c 0.981,2.637 2.719,3.958 5.214,3.958 v 0 h 29.165 c 0.102,0 0.154,0.05 0.154,0.152 v 0 7.514 c 0,0.082 -0.052,0.132 -0.154,0.154 v 0 z"
                 style="fill:url(#linearGradient1710);stroke:none"
                 id="path408" />
            </g>
          </g>
        </g>
      </g>
      <g
         id="g410"
         transform="matrix(0.78802074,0,0,-0.78802074,-778.75756,1059.1703)">
        <g
           id="g412">
          <g
             id="g418">
            <g
               id="g420">
              <path
                 d="m 1362.18,756.92 c -0.082,0 -0.133,-0.052 -0.153,-0.154 v 0 -32.6 c 0,-0.103 0.051,-0.155 0.153,-0.155 v 0 h 10.213 c 0.102,0 0.153,0.052 0.153,0.155 v 0 32.6 c 0,0.082 -0.051,0.132 -0.153,0.154 v 0 z"
                 style="fill:url(#linearGradient1712);stroke:none"
                 id="path428" />
            </g>
          </g>
        </g>
      </g>
      <g
         id="g430"
         transform="matrix(0.78802074,0,0,-0.78802074,-778.75756,1059.1703)">
        <g
           id="g432">
          <g
             id="g438">
            <g
               id="g440">
              <path
                 d="m 1389.585,756.92 c -0.082,0 -0.134,-0.052 -0.154,-0.154 v 0 -7.514 c 0,-0.102 0.051,-0.152 0.154,-0.152 v 0 h 17.204 v -24.934 c 0,-0.103 0.051,-0.155 0.154,-0.155 v 0 h 10.243 c 0.102,0 0.153,0.052 0.153,0.155 v 0 24.934 h 17.144 c 0.103,0 0.154,0.05 0.154,0.152 v 0 7.514 c 0,0.082 -0.051,0.132 -0.154,0.154 v 0 z"
                 style="fill:url(#linearGradient1714);stroke:none"
                 id="path448" />
            </g>
          </g>
        </g>
      </g>
      <g
         id="g450"
         transform="matrix(0.78802074,0,0,-0.78802074,-778.75756,1059.1703)">
        <g
           id="g452">
          <g
             id="g458">
            <g
               id="g460">
              <path
                 d="m 1470.874,756.92 c -0.471,-0.717 -6.921,-11.635 -19.352,-32.754 v 0 -0.155 h 12.144 c 0.225,0.307 4.375,7.321 12.452,21.04 v 0 c 0.04,0 0.5,-0.737 1.38,-2.209 v 0 c 7.177,-12.268 10.908,-18.544 11.195,-18.831 v 0 h 12.083 v 0.062 c -0.348,0.634 -4.673,7.993 -12.973,22.081 v 0 c -4.11,6.992 -6.267,10.58 -6.471,10.766 v 0 z"
                 style="fill:url(#linearGradient1716);stroke:none"
                 id="path468" />
            </g>
          </g>
        </g>
      </g>
      <g
         id="g470"
         transform="matrix(0.78802074,0,0,-0.78802074,-778.75756,1059.1703)">
        <g
           id="g472">
          <g
             id="g478">
            <g
               id="g480">
              <path
                 d="m 1517.814,756.92 c -0.082,0 -0.133,-0.052 -0.154,-0.154 v 0 -32.6 c 0,-0.103 0.051,-0.155 0.154,-0.155 v 0 h 44.899 c 0.102,0 0.153,0.052 0.153,0.155 v 0 7.513 c 0,0.08 -0.051,0.122 -0.153,0.122 v 0 h -34.534 v 24.965 c 0,0.082 -0.051,0.132 -0.153,0.154 v 0 z"
                 style="fill:url(#linearGradient1718);stroke:none"
                 id="path488" />
            </g>
          </g>
        </g>
      </g>
    </g>
  </g>
  <g
     id="g2194"
     transform="matrix(0.3232022,0,0,0.3232022,630.72268,235.60804)"
     inkscape:export-filename="/mnt/aux_drive_linux_nvme/Workspace/SINGULARIDADE.DIGITAL/PUBLICIDADE E PROPAGANDA/IDENTIDADE VISUAL/v1/exports/identidade_visual_singularidade_digital_v1_logo_primaria_1200dpi.png"
     inkscape:export-xdpi="1199.9576"
     inkscape:export-ydpi="1199.9576">
    <g
       id="g1569">
      <g
         id="g10-3"
         transform="matrix(1.3333333,0,0,-1.3333333,-2056.9431,1200.9859)">
        <g
           id="g12-0">
          <g
             id="g18-3">
            <g
               id="g20-09">
              <path
                 d="m 947.57,854.395 48.159,-30.401 4.076,-2.571 0.195,-0.121 0.024,0.024 63.444,40.056 -52.429,33.093 z"
                 style="fill:url(#linearGradient1386);stroke:none"
                 id="path28-2" />
            </g>
          </g>
        </g>
      </g>
      <g
         id="g30-5"
         transform="matrix(1.3333333,0,0,-1.3333333,-2056.9431,1200.9859)">
        <g
           id="g32-4">
          <g
             id="g38-05">
            <g
               id="g40-9">
              <path
                 d="m 999.998,1275.988 -37.851,-23.905 -25.617,-16.167 -87.713,-55.371 -0.04,0.027 -63.468,-40.086 0.026,-0.02 -0.026,-0.013 63.468,-40.073 0.026,0.021 81.858,-51.67 v -6.766 l 0.02,-96.754 -77.595,48.986 -0.013,46.751 v 1.432 l -0.221,0.167 -67.543,42.656 v -86.931 l 0.006,-41.41 -0.006,-0.007 0.006,-0.006 67.778,-42.796 77.615,-49.006 5.481,-3.467 62.256,39.303 v 105.072 l -0.007,29.292 -0.013,49.394 v 1.479 l -0.221,0.14 -5.287,3.326 -51.555,32.551 -10.701,6.759 v -0.01 l -18.369,11.59 87.706,55.371 76.183,-48.083 16.837,10.628 46.657,29.431 -139.677,88.162 z"
                 style="fill:url(#linearGradient1388);stroke:none"
                 id="path48-4" />
            </g>
          </g>
        </g>
      </g>
      <g
         id="g50-69"
         transform="matrix(1.3333333,0,0,-1.3333333,-2056.9431,1200.9859)">
        <g
           id="g52-2">
          <g
             id="g58-2">
            <g
               id="g60-4">
              <path
                 d="m 1214.667,1113.073 v 27.343 l 0.024,0.024 -0.024,0.024 -51.726,32.657 -11.913,7.521 -4.124,-2.597 -47.407,-29.914 -11.962,-7.546 -23.63,-14.92 -39.086,-24.675 -13.635,-8.588 v -79.578 -0.583 -103.455 l 67.763,42.604 -0.024,103.628 13.635,8.609 54.37,34.331 V 980.289 l -124.523,-78.636 52.417,-33.09 72.106,45.613 67.763,42.773 v 80.112 l -0.01,-0.01 z"
                 style="fill:url(#linearGradient1390);stroke:none"
                 id="path68-7" />
            </g>
          </g>
        </g>
      </g>
    </g>
    <g
       id="g1676"
       transform="translate(0,-46)">
      <g
         id="g70-7"
         transform="matrix(1.3333333,0,0,-1.3333333,-2056.9431,1200.9859)">
        <g
           id="g72-5">
          <g
             id="g78-4">
            <g
               id="g80-8">
              <path
                 d="m 447.377,756.92 c -1.594,-0.104 -3.342,-0.594 -5.244,-1.473 v 0 c -3.333,-1.963 -4.999,-4.447 -4.999,-7.452 v 0 -2.27 c 0,-1.656 0.562,-3.231 1.687,-4.724 v 0 c 2.372,-2.739 5.316,-4.108 8.833,-4.108 v 0 h 21.345 c 0.47,0 0.868,-0.073 1.196,-0.215 v 0 c 1.063,-0.512 1.595,-1.277 1.595,-2.301 v 0 c 0,-0.082 -0.041,-0.368 -0.123,-0.857 v 0 c -0.491,-1.147 -1.38,-1.719 -2.668,-1.719 v 0 h -31.711 c -0.082,0 -0.134,-0.042 -0.154,-0.122 v 0 -7.513 c 0,-0.103 0.051,-0.155 0.154,-0.155 v 0 h 34.655 c 1.635,0 3.23,0.349 4.784,1.043 v 0 c 3.742,1.983 5.613,4.58 5.613,7.79 v 0 2.27 c 0,1.88 -0.716,3.65 -2.147,5.306 v 0 c -2.352,2.412 -5.051,3.619 -8.097,3.619 v 0 h -21.651 c -0.451,0 -0.839,0.07 -1.166,0.215 v 0 c -1.084,0.509 -1.625,1.267 -1.625,2.269 v 0 c 0,1.492 0.889,2.35 2.668,2.577 v 0 h 31.865 c 0.101,0 0.153,0.05 0.153,0.152 v 0 7.514 c 0,0.082 -0.052,0.132 -0.153,0.154 v 0 z"
                 style="fill:url(#linearGradient1392);stroke:none"
                 id="path88-1" />
            </g>
          </g>
        </g>
      </g>
      <g
         id="g90-2"
         transform="matrix(1.3333333,0,0,-1.3333333,-2056.9431,1200.9859)">
        <g
           id="g92-8">
          <g
             id="g98-9">
            <g
               id="g100-3">
              <path
                 d="m 499.379,756.92 c -0.082,0 -0.134,-0.052 -0.154,-0.154 v 0 -32.6 c 0,-0.103 0.051,-0.155 0.154,-0.155 v 0 h 10.212 c 0.102,0 0.153,0.052 0.153,0.155 v 0 32.6 c 0,0.082 -0.051,0.132 -0.153,0.154 v 0 z"
                 style="fill:url(#linearGradient1394);stroke:none"
                 id="path108-6" />
            </g>
          </g>
        </g>
      </g>
      <g
         id="g110-8"
         transform="matrix(1.3333333,0,0,-1.3333333,-2056.9431,1200.9859)">
        <g
           id="g112-0">
          <g
             id="g118-2">
            <g
               id="g120-1">
              <path
                 d="m 526.783,756.92 c -0.082,0 -0.134,-0.052 -0.154,-0.154 v 0 -32.6 c 0,-0.103 0.051,-0.155 0.154,-0.155 v 0 h 10.212 c 0.102,0 0.154,0.052 0.154,0.155 v 0 24.934 h 18.769 c 0.491,0 1.033,-0.072 1.626,-0.215 v 0 c 2.494,-0.882 3.741,-2.772 3.741,-5.674 v 0 -19.045 c 0,-0.103 0.05,-0.155 0.153,-0.155 v 0 h 10.244 c 0.102,0 0.153,0.052 0.153,0.155 v 0 23.92 c 0,1.574 -0.573,3.17 -1.717,4.785 v 0 c -2.536,2.7 -5.358,4.049 -8.465,4.049 v 0 z"
                 style="fill:url(#linearGradient1396);stroke:none"
                 id="path128-0" />
            </g>
          </g>
        </g>
      </g>
      <g
         id="g130-5"
         transform="matrix(1.3333333,0,0,-1.3333333,-2056.9431,1200.9859)">
        <g
           id="g132-1">
          <g
             id="g138-1">
            <g
               id="g140-0">
              <path
                 d="m 598.964,756.92 c -1.33,0 -2.833,-0.348 -4.509,-1.043 v 0 c -3.824,-1.922 -5.735,-4.551 -5.735,-7.882 v 0 -14.997 c 0,-1.902 0.715,-3.691 2.147,-5.367 v 0 c 2.351,-2.412 5.121,-3.62 8.312,-3.62 v 0 h 34.594 c 0.102,0 0.153,0.052 0.153,0.155 v 0 13.677 c 0,0.083 -0.051,0.134 -0.153,0.153 v 0 h -10.244 c -0.082,0 -0.133,-0.051 -0.154,-0.153 v 0 -6.042 h -18.768 c -0.676,0 -1.258,0.103 -1.748,0.307 v 0 c -2.414,0.982 -3.62,2.679 -3.62,5.091 v 0 6.748 c 0,0.244 0.051,0.643 0.154,1.195 v 0 c 0.981,2.637 2.719,3.958 5.214,3.958 v 0 h 29.166 c 0.102,0 0.153,0.05 0.153,0.152 v 0 7.514 c 0,0.082 -0.051,0.132 -0.153,0.154 v 0 z"
                 style="fill:url(#linearGradient1398);stroke:none"
                 id="path148-8" />
            </g>
          </g>
        </g>
      </g>
      <g
         id="g150-5"
         transform="matrix(1.3333333,0,0,-1.3333333,-2056.9431,1200.9859)">
        <g
           id="g152-0">
          <g
             id="g158-6">
            <g
               id="g160-4">
              <path
                 d="m 685.619,756.92 c -0.082,0 -0.133,-0.052 -0.153,-0.154 v 0 -24.965 h -18.769 c -0.491,0 -1.023,0.082 -1.595,0.246 v 0 c -2.515,0.879 -3.772,2.76 -3.772,5.643 v 0 19.076 c 0,0.082 -0.051,0.132 -0.154,0.154 v 0 h -10.212 c -0.082,0 -0.133,-0.052 -0.154,-0.154 v 0 -23.86 c 0,-1.82 0.665,-3.537 1.993,-5.153 v 0 c 2.352,-2.495 5.02,-3.742 8.005,-3.742 v 0 h 35.055 c 0.102,0 0.153,0.052 0.153,0.155 v 0 32.6 c 0,0.082 -0.051,0.132 -0.153,0.154 v 0 z"
                 style="fill:url(#linearGradient1400);stroke:none"
                 id="path168-6" />
            </g>
          </g>
        </g>
      </g>
      <g
         id="g170-2"
         transform="matrix(1.3333333,0,0,-1.3333333,-2056.9431,1200.9859)">
        <g
           id="g172-5">
          <g
             id="g178-8">
            <g
               id="g180-6">
              <path
                 d="m 713.055,756.92 c -0.082,0 -0.133,-0.052 -0.154,-0.154 v 0 -32.6 c 0,-0.103 0.051,-0.155 0.154,-0.155 v 0 h 44.899 c 0.102,0 0.153,0.052 0.153,0.155 v 0 7.513 c 0,0.08 -0.051,0.122 -0.153,0.122 v 0 H 723.42 v 24.965 c 0,0.082 -0.051,0.132 -0.153,0.154 v 0 z"
                 style="fill:url(#linearGradient1402);stroke:none"
                 id="path188-2" />
            </g>
          </g>
        </g>
      </g>
      <g
         id="g190-8"
         transform="matrix(1.3333333,0,0,-1.3333333,-2056.9431,1200.9859)">
        <g
           id="g192-4">
          <g
             id="g198-7">
            <g
               id="g200-2">
              <path
                 d="m 794.344,756.92 c -0.47,-0.717 -6.921,-11.635 -19.352,-32.754 v 0 -0.155 h 12.144 c 0.225,0.307 4.375,7.321 12.453,21.04 v 0 c 0.04,0 0.5,-0.737 1.38,-2.209 v 0 c 7.176,-12.268 10.907,-18.544 11.194,-18.831 v 0 h 12.083 v 0.062 c -0.348,0.634 -4.673,7.993 -12.973,22.081 v 0 c -4.11,6.992 -6.267,10.58 -6.471,10.766 v 0 z"
                 style="fill:url(#linearGradient1404);stroke:none"
                 id="path208-4" />
            </g>
          </g>
        </g>
      </g>
      <g
         id="g210-0"
         transform="matrix(1.3333333,0,0,-1.3333333,-2056.9431,1200.9859)">
        <g
           id="g212-6">
          <g
             id="g218-2">
            <g
               id="g220-9">
              <path
                 d="m 841.284,756.92 c -0.082,0 -0.133,-0.052 -0.154,-0.154 v 0 -32.6 c 0,-0.103 0.051,-0.155 0.154,-0.155 v 0 h 10.212 c 0.103,0 0.154,0.052 0.154,0.155 v 0 8.893 h 15.979 c 3.761,-5.684 5.796,-8.699 6.103,-9.048 v 0 h 12.451 l 0.153,0.062 -6.41,9.661 1.319,0.582 c 3.394,2.023 5.091,4.58 5.091,7.668 v 0 5.949 c 0,1.923 -0.715,3.712 -2.146,5.368 v 0 c -2.352,2.412 -5.102,3.619 -8.251,3.619 v 0 z m 10.366,-7.82 h 20.088 c 0.531,0 1.053,-0.072 1.564,-0.215 v 0 c 1.656,-0.655 2.484,-1.975 2.484,-3.958 v 0 c 0,-0.407 -0.041,-0.828 -0.122,-1.257 v 0 c -0.573,-1.859 -1.922,-2.791 -4.049,-2.791 v 0 H 851.65 Z"
                 style="fill:url(#linearGradient1406);stroke:none"
                 id="path228-9" />
            </g>
          </g>
        </g>
      </g>
      <g
         id="g230-0"
         transform="matrix(1.3333333,0,0,-1.3333333,-2056.9431,1200.9859)">
        <g
           id="g232-8">
          <g
             id="g238-1">
            <g
               id="g240-3">
              <path
                 d="m 903.375,756.92 c -0.082,0 -0.133,-0.052 -0.154,-0.154 v 0 -32.6 c 0,-0.103 0.051,-0.155 0.154,-0.155 v 0 h 10.212 c 0.102,0 0.153,0.052 0.153,0.155 v 0 32.6 c 0,0.082 -0.051,0.132 -0.153,0.154 v 0 z"
                 style="fill:url(#linearGradient1408);stroke:none"
                 id="path248-1" />
            </g>
          </g>
        </g>
      </g>
      <g
         id="g250-1"
         transform="matrix(1.3333333,0,0,-1.3333333,-2056.9431,1200.9859)">
        <g
           id="g252-0">
          <g
             id="g258-3">
            <g
               id="g260-4">
              <path
                 d="m 930.779,756.92 c -0.082,0 -0.133,-0.052 -0.154,-0.154 v 0 -32.6 c 0,-0.103 0.052,-0.155 0.154,-0.155 v 0 h 34.808 c 1.801,0 3.691,0.542 5.675,1.626 v 0 c 3.046,2.004 4.569,4.406 4.569,7.207 v 0 15.089 c 0,1.923 -0.715,3.712 -2.146,5.368 v 0 c -2.373,2.412 -5.122,3.619 -8.25,3.619 v 0 z m 10.366,-7.82 h 18.77 c 0.674,0 1.267,-0.094 1.778,-0.277 v 0 c 2.392,-0.982 3.588,-2.679 3.588,-5.091 v 0 -6.625 c 0,-0.511 -0.072,-1.023 -0.214,-1.533 v 0 c -1.002,-2.515 -2.689,-3.773 -5.06,-3.773 v 0 h -18.862 z"
                 style="fill:url(#linearGradient1410);stroke:none"
                 id="path268-0" />
            </g>
          </g>
        </g>
      </g>
      <g
         id="g270-3"
         transform="matrix(1.3333333,0,0,-1.3333333,-2056.9431,1200.9859)">
        <g
           id="g272-9">
          <g
             id="g278-1">
            <g
               id="g280-9">
              <path
                 d="m 1012.068,756.92 c -0.47,-0.717 -6.921,-11.635 -19.352,-32.754 v 0 -0.155 h 12.146 c 0.224,0.307 4.375,7.321 12.451,21.04 v 0 c 0.041,0 0.501,-0.737 1.38,-2.209 v 0 c 7.177,-12.268 10.908,-18.544 11.194,-18.831 v 0 h 12.083 v 0.062 c -0.348,0.634 -4.671,7.993 -12.972,22.081 v 0 c -4.11,6.992 -6.268,10.58 -6.472,10.766 v 0 z"
                 style="fill:url(#linearGradient1412);stroke:none"
                 id="path288-6" />
            </g>
          </g>
        </g>
      </g>
      <g
         id="g290-9"
         transform="matrix(1.3333333,0,0,-1.3333333,-2056.9431,1200.9859)">
        <g
           id="g292-3">
          <g
             id="g298-3">
            <g
               id="g300-8">
              <path
                 d="m 1059.008,756.92 c -0.081,0 -0.133,-0.052 -0.153,-0.154 v 0 -32.6 c 0,-0.103 0.051,-0.155 0.153,-0.155 v 0 h 34.81 c 1.799,0 3.69,0.542 5.673,1.626 v 0 c 3.047,2.004 4.57,4.406 4.57,7.207 v 0 15.089 c 0,1.923 -0.716,3.712 -2.147,5.368 v 0 c -2.372,2.412 -5.122,3.619 -8.25,3.619 v 0 z m 10.367,-7.82 h 18.769 c 0.674,0 1.267,-0.094 1.778,-0.277 v 0 c 2.393,-0.982 3.589,-2.679 3.589,-5.091 v 0 -6.625 c 0,-0.511 -0.072,-1.023 -0.214,-1.533 v 0 c -1.003,-2.515 -2.69,-3.773 -5.061,-3.773 v 0 h -18.861 z"
                 style="fill:url(#linearGradient1414);stroke:none"
                 id="path308-0" />
            </g>
          </g>
        </g>
      </g>
      <g
         id="g310-5"
         transform="matrix(1.3333333,0,0,-1.3333333,-2056.9431,1200.9859)">
        <g
           id="g312-6">
          <g
             id="g318-6">
            <g
               id="g320-4">
              <path
                 d="m 1121.099,756.92 c -0.082,0 -0.133,-0.052 -0.154,-0.154 v 0 -7.514 c 0,-0.102 0.052,-0.152 0.154,-0.152 v 0 h 44.9 c 0.101,0 0.153,0.05 0.153,0.152 v 0 7.514 c 0,0.082 -0.052,0.132 -0.153,0.154 v 0 z m 0,-12.881 c -0.082,0 -0.133,-0.053 -0.154,-0.154 v 0 -6.838 c 0,-0.104 0.052,-0.154 0.154,-0.154 v 0 h 44.9 c 0.101,0 0.153,0.05 0.153,0.154 v 0 6.838 c 0,0.082 -0.052,0.132 -0.153,0.154 v 0 z m 0,-12.238 c -0.082,0 -0.133,-0.042 -0.154,-0.122 v 0 -7.513 c 0,-0.103 0.052,-0.155 0.154,-0.155 v 0 h 44.9 c 0.101,0 0.153,0.052 0.153,0.155 v 0 7.513 c 0,0.08 -0.052,0.122 -0.153,0.122 v 0 z"
                 style="fill:url(#linearGradient1416);stroke:none"
                 id="path328-0" />
            </g>
          </g>
        </g>
      </g>
      <g
         id="g330-0"
         transform="matrix(1.3333333,0,0,-1.3333333,-2056.9431,1200.9859)">
        <g
           id="g332-4">
          <g
             id="g338-6">
            <g
               id="g340-2">
              <path
                 d="m 1183.19,731.801 c -0.081,0 -0.133,-0.042 -0.154,-0.122 v 0 -7.513 c 0,-0.103 0.052,-0.155 0.154,-0.155 v 0 h 10.213 c 0.102,0 0.153,0.052 0.153,0.155 v 0 7.513 c 0,0.08 -0.051,0.122 -0.153,0.122 v 0 z"
                 style="fill:url(#linearGradient1418);stroke:none"
                 id="path348-6" />
            </g>
          </g>
        </g>
      </g>
      <g
         id="g350-7"
         transform="matrix(1.3333333,0,0,-1.3333333,-2056.9431,1200.9859)">
        <g
           id="g352-5">
          <g
             id="g358-6">
            <g
               id="g360-9">
              <path
                 d="m 1210.594,756.92 c -0.081,0 -0.133,-0.052 -0.153,-0.154 v 0 -32.6 c 0,-0.103 0.051,-0.155 0.153,-0.155 v 0 h 34.809 c 1.8,0 3.691,0.542 5.674,1.626 v 0 c 3.047,2.004 4.57,4.406 4.57,7.207 v 0 15.089 c 0,1.923 -0.716,3.712 -2.147,5.368 v 0 c -2.372,2.412 -5.122,3.619 -8.25,3.619 v 0 z m 10.367,-7.82 h 18.769 c 0.674,0 1.267,-0.094 1.779,-0.277 v 0 c 2.392,-0.982 3.588,-2.679 3.588,-5.091 v 0 -6.625 c 0,-0.511 -0.072,-1.023 -0.214,-1.533 v 0 c -1.003,-2.515 -2.69,-3.773 -5.061,-3.773 v 0 h -18.861 z"
                 style="fill:url(#linearGradient1420);stroke:none"
                 id="path368-8" />
            </g>
          </g>
        </g>
      </g>
      <g
         id="g370-7"
         transform="matrix(1.3333333,0,0,-1.3333333,-2056.9431,1200.9859)">
        <g
           id="g372-2">
          <g
             id="g378-8">
            <g
               id="g380-2">
              <path
                 d="m 1272.685,756.92 c -0.082,0 -0.134,-0.052 -0.153,-0.154 v 0 -32.6 c 0,-0.103 0.051,-0.155 0.153,-0.155 v 0 h 10.213 c 0.102,0 0.153,0.052 0.153,0.155 v 0 32.6 c 0,0.082 -0.051,0.132 -0.153,0.154 v 0 z"
                 style="fill:url(#linearGradient1422);stroke:none"
                 id="path388-9" />
            </g>
          </g>
        </g>
      </g>
      <g
         id="g390-9"
         transform="matrix(1.3333333,0,0,-1.3333333,-2056.9431,1200.9859)">
        <g
           id="g392-6">
          <g
             id="g398-0">
            <g
               id="g400">
              <path
                 d="m 1310.179,756.92 c -1.33,0 -2.832,-0.348 -4.509,-1.043 v 0 c -3.823,-1.922 -5.734,-4.551 -5.734,-7.882 v 0 -14.997 c 0,-1.902 0.715,-3.691 2.146,-5.367 v 0 c 2.352,-2.412 5.122,-3.62 8.312,-3.62 v 0 h 34.594 c 0.102,0 0.154,0.052 0.154,0.155 v 0 13.677 c 0,0.083 -0.052,0.134 -0.154,0.153 v 0 h -10.243 c -0.082,0 -0.134,-0.051 -0.154,-0.153 v 0 -6.042 h -18.768 c -0.676,0 -1.258,0.103 -1.749,0.307 v 0 c -2.413,0.982 -3.619,2.679 -3.619,5.091 v 0 6.748 c 0,0.244 0.051,0.643 0.154,1.195 v 0 c 0.981,2.637 2.719,3.958 5.214,3.958 v 0 h 29.165 c 0.102,0 0.154,0.05 0.154,0.152 v 0 7.514 c 0,0.082 -0.052,0.132 -0.154,0.154 v 0 z"
                 style="fill:url(#linearGradient1424);stroke:none"
                 id="path408-2" />
            </g>
          </g>
        </g>
      </g>
      <g
         id="g410-7"
         transform="matrix(1.3333333,0,0,-1.3333333,-2056.9431,1200.9859)">
        <g
           id="g412-6">
          <g
             id="g418-1">
            <g
               id="g420-3">
              <path
                 d="m 1362.18,756.92 c -0.082,0 -0.133,-0.052 -0.153,-0.154 v 0 -32.6 c 0,-0.103 0.051,-0.155 0.153,-0.155 v 0 h 10.213 c 0.102,0 0.153,0.052 0.153,0.155 v 0 32.6 c 0,0.082 -0.051,0.132 -0.153,0.154 v 0 z"
                 style="fill:url(#linearGradient1426);stroke:none"
                 id="path428-2" />
            </g>
          </g>
        </g>
      </g>
      <g
         id="g430-1"
         transform="matrix(1.3333333,0,0,-1.3333333,-2056.9431,1200.9859)">
        <g
           id="g432-5">
          <g
             id="g438-9">
            <g
               id="g440-9">
              <path
                 d="m 1389.585,756.92 c -0.082,0 -0.134,-0.052 -0.154,-0.154 v 0 -7.514 c 0,-0.102 0.051,-0.152 0.154,-0.152 v 0 h 17.204 v -24.934 c 0,-0.103 0.051,-0.155 0.154,-0.155 v 0 h 10.243 c 0.102,0 0.153,0.052 0.153,0.155 v 0 24.934 h 17.144 c 0.103,0 0.154,0.05 0.154,0.152 v 0 7.514 c 0,0.082 -0.051,0.132 -0.154,0.154 v 0 z"
                 style="fill:url(#linearGradient1428);stroke:none"
                 id="path448-1" />
            </g>
          </g>
        </g>
      </g>
      <g
         id="g450-4"
         transform="matrix(1.3333333,0,0,-1.3333333,-2056.9431,1200.9859)">
        <g
           id="g452-9">
          <g
             id="g458-1">
            <g
               id="g460-0">
              <path
                 d="m 1470.874,756.92 c -0.471,-0.717 -6.921,-11.635 -19.352,-32.754 v 0 -0.155 h 12.144 c 0.225,0.307 4.375,7.321 12.452,21.04 v 0 c 0.04,0 0.5,-0.737 1.38,-2.209 v 0 c 7.177,-12.268 10.908,-18.544 11.195,-18.831 v 0 h 12.083 v 0.062 c -0.348,0.634 -4.673,7.993 -12.973,22.081 v 0 c -4.11,6.992 -6.267,10.58 -6.471,10.766 v 0 z"
                 style="fill:url(#linearGradient1430);stroke:none"
                 id="path468-7" />
            </g>
          </g>
        </g>
      </g>
      <g
         id="g470-5"
         transform="matrix(1.3333333,0,0,-1.3333333,-2056.9431,1200.9859)">
        <g
           id="g472-8">
          <g
             id="g478-7">
            <g
               id="g480-0">
              <path
                 d="m 1517.814,756.92 c -0.082,0 -0.133,-0.052 -0.154,-0.154 v 0 -32.6 c 0,-0.103 0.051,-0.155 0.154,-0.155 v 0 h 44.899 c 0.102,0 0.153,0.052 0.153,0.155 v 0 7.513 c 0,0.08 -0.051,0.122 -0.153,0.122 v 0 h -34.534 v 24.965 c 0,0.082 -0.051,0.132 -0.153,0.154 v 0 z"
                 style="fill:url(#linearGradient1432);stroke:none"
                 id="path488-4" />
            </g>
          </g>
        </g>
      </g>
    </g>
  </g>
</svg>
